<?xml version="1.0" encoding="UTF-8"?>
<svg width="28px" height="26px" viewBox="0 0 28 26" version="1.1" xmlns="http://www.w3.org/2000/svg" xmlns:xlink="http://www.w3.org/1999/xlink">
    <!-- Generator: Sketch 49 (51002) - http://www.bohemiancoding.com/sketch -->
    <title>02大</title>
    <desc>Created with Sketch.</desc>
    <defs></defs>
    <g id="Page-1" stroke="none" stroke-width="1" fill="none" fill-rule="evenodd">
        <g id="道具箱" transform="translate(-206.000000, -176.000000)" fill="#FFFFFF">
            <g id="道具02" transform="translate(200.000000, 137.000000)">
                <g id="02大" transform="translate(6.000000, 39.000000)">
                    <polygon id="Fill-1" points="0 18 11 18 11 14 0 14"></polygon>
                    <path d="M13,21.4587209 C13,17.402815 14.4762181,15.0803852 18.7051707,12.5495102 C21.3224229,10.9547123 22.228124,9.74127912 22.228124,7.83488353 C22.228124,5.75471232 21.121064,4.88797432 18.4027179,4.88797432 C17.0607391,4.88797432 15.4498674,5.1657585 13.9396752,5.61603424 L13.5033974,0.936077043 C15.9532648,0.312025681 18.3355983,0 20.2485085,0 C25.3827478,0 28,2.39219689 28,7.07215409 C28,10.6080171 26.4226881,13.2082311 22.7650812,15.6 C19.2417136,17.9917689 18.6711966,18.6158202 18.6711966,20.0030291 L18.6711966,21.0426866 L27.7990554,21.0426866 L27.7990554,26 L13,26 L13,21.4587209 Z" id="Fill-2"></path>
                </g>
            </g>
        </g>
    </g>
</svg>