<?xml version="1.0" encoding="UTF-8"?>
<svg width="26px" height="20px" viewBox="0 0 26 20" version="1.1" xmlns="http://www.w3.org/2000/svg" xmlns:xlink="http://www.w3.org/1999/xlink">
    <!-- Generator: Sketch 49 (51002) - http://www.bohemiancoding.com/sketch -->
    <title>Page 1</title>
    <desc>Created with Sketch.</desc>
    <defs></defs>
    <g id="Page-1" stroke="none" stroke-width="1" fill="none" fill-rule="evenodd">
        <g id="道具箱" transform="translate(-57.000000, -404.000000)" fill="#FFFFFF">
            <g id="道具03" transform="translate(50.000000, 350.000000)">
                <g id="Page-1" transform="translate(7.000000, 54.000000)">
                    <path d="M4.40471308,0 L0,19.8107544 L0,20 L3.83325759,20 L4.85712227,15.3514096 L10.0951594,15.3514096 L11.1429664,20 L15,20 L15,19.8107544 L10.5952869,0 L4.40471308,0 Z M6.76202933,6.40531193 L7.35726083,3.4594427 L7.61912943,3.4594427 L8.23797067,6.40531193 L9.33332964,11.648721 L5.64289435,11.648721 L6.76202933,6.40531193 Z" id="Fill-1"></path>
                    <path d="M20.6493233,17 L23.3506767,17 L23.3506767,13.9255004 L20.6493233,13.9255004 L20.6493233,17 Z M22.0518545,2 C24.7706099,2 26,3.67705926 26,6.39737496 C26,7.88802163 25.3939181,8.74535604 24.6667253,9.56508089 C24.0780454,10.254644 23.3332747,10.7764357 23.3332747,11.8198557 L23.3332747,12.565179 L20.6493233,12.565179 L20.6493233,11.8198557 C20.6493233,10.2919265 21.3420636,9.47203811 22.0346282,8.70807352 C22.7273686,8.01851044 23.3160485,7.47824096 23.3160485,6.39737496 C23.3160485,5.50308507 22.7618211,4.98129333 22.0518545,4.98129333 C21.3420636,4.98129333 20.7185797,5.50308507 20.5454386,6.9191667 L18,6.37889722 C18.450167,3.37879911 19.9567587,2 22.0518545,2 Z" id="Fill-2"></path>
                </g>
            </g>
        </g>
    </g>
</svg>