<?xml version="1.0" encoding="UTF-8"?>
<svg width="143px" height="125px" viewBox="0 0 143 125" version="1.1" xmlns="http://www.w3.org/2000/svg" xmlns:xlink="http://www.w3.org/1999/xlink">
    <!-- Generator: Sketch 49 (51002) - http://www.bohemiancoding.com/sketch -->
    <title>icon</title>
    <desc>Created with Sketch.</desc>
    <defs>
        <polygon id="path-1" points="0.379746835 0.378947368 139.379747 0.378947368 139.379747 168.378947 0.379746835 168.378947"></polygon>
        <polygon id="path-3" points="0 1.58206781e-14 139 1.58206781e-14 139 168 0 168"></polygon>
        <polygon id="path-5" points="0 172 143 172 143 0 0 0"></polygon>
    </defs>
    <g id="Page-1" stroke="none" stroke-width="1" fill="none" fill-rule="evenodd">
        <g id="iPhone-8-Copy-5" transform="translate(-50.000000, -405.000000)">
            <g id="Group-3-Copy-2" transform="translate(25.000000, 380.000000)">
                <g id="页面-1">
                    <g id="icon" transform="translate(25.000000, 25.000000)">
                        <g id="页面-1">
                            <g id="Page-1">
                                <g id="Group-3" transform="translate(3.620253, 3.621053)">
                                    <mask id="mask-2" fill="white">
                                        <use xlink:href="#path-1"></use>
                                    </mask>
                                    <g id="Clip-2"></g>
                                    <path d="M139.379747,85.3789474 C139.263212,126.889713 139.379747,168.378947 139.379747,168.378947 L0.379746835,168.378947 C0.496281238,168.378947 0.379746835,126.365035 0.379746835,84.3789474 C0.379746835,42.353111 0.496281238,0.378947368 0.379746835,0.378947368 L139.379747,0.378947368 C139.379747,0.378947368 139.263212,42.8936873 139.379747,85.3789474" id="Fill-1" fill="#C0DBEE" mask="url(#mask-2)"></path>
                                </g>
                                <g id="Group-6">
                                    <mask id="mask-4" fill="white">
                                        <use xlink:href="#path-3"></use>
                                    </mask>
                                    <g id="Clip-5"></g>
                                    <path d="M139,80 C139,39.3849357 138.784645,-6.83342272e-14 139,-6.83342272e-14 L1.7096513e-14,-6.83342272e-14 C1.7096513e-14,-6.83342272e-14 0.215355483,39.5915973 1.7096513e-14,78 C0.215355483,114.776684 1.7096513e-14,168 1.7096513e-14,168 L139,168 C138.784645,168 139,123.289553 139,80" id="Fill-4" fill="#FFFFFF" mask="url(#mask-4)"></path>
                                </g>
                                <mask id="mask-6" fill="white">
                                    <use xlink:href="#path-5"></use>
                                </mask>
                                <g id="Clip-8"></g>
                                <polygon id="Fill-7" fill="#BDD5FC" mask="url(#mask-6)" points="14.4810127 18.1052632 124.898734 18.1052632 124.898734 12.6736842 14.4810127 12.6736842"></polygon>
                                <polygon id="Fill-9" fill="#B7C1C7" mask="url(#mask-6)" points="14.4810127 21.7263158 124.898734 21.7263158 124.898734 19.9157895 14.4810127 19.9157895"></polygon>
                                <path d="M107.319844,134.891427 L105.327745,141.173897 C106.215696,140.688854 107.590862,140.02673 109.435484,139.195227 L107.319844,134.891427 Z M114.917616,147.287758 C114.199534,147.471766 113.327025,146.710325 112.323255,144.978026 C111.937189,144.320522 111.365812,143.150258 110.609123,141.466463 C109.836992,141.774428 108.833221,142.236374 107.605532,142.852302 L104.633599,144.300504 C104.504653,145.424574 104.215876,147.09528 103.76804,149.311853 C103.686194,149.76148 103.348,150.122568 102.903253,150.236515 C102.588995,150.315046 102.256207,150.268082 101.976695,150.10563 C101.67402,149.950878 101.457823,149.666781 101.389875,149.33572 C101.289498,148.965393 101.521138,147.380147 102.077072,144.59307 C101.8879,144.415991 101.753549,144.188867 101.691006,143.937876 C101.528859,143.298851 101.814547,142.799179 102.541123,142.398055 C103.00363,140.489447 103.642182,138.269024 104.455237,135.739098 C105.567106,132.296828 106.346958,130.511405 106.771631,130.395148 C107.389336,130.241166 107.929828,130.564529 108.377664,131.365236 L110.131174,135.137798 L113.991831,142.836904 L115.141534,144.523778 C115.413324,144.887946 115.63647,145.28676 115.805567,145.708671 C115.895134,146.028184 115.841857,146.370794 115.658862,146.648732 C115.510613,146.953616 115.242683,147.185359 114.917616,147.287758 Z" id="Fill-10" fill="#E8351F" mask="url(#mask-6)"></path>
                                <path d="M128.475355,136.084375 C128.557688,136.394962 128.522635,136.727857 128.377533,137.010989 C128.242213,137.295837 127.994399,137.502609 127.700934,137.577253 C127.546865,137.61243 127.391981,137.635595 127.235466,137.645891 C127.076506,137.657902 126.919177,137.68021 126.762662,137.714529 L125.524404,138.074878 C125.018992,138.230172 124.603251,138.341709 124.277179,138.410347 L125.018992,141.490479 C125.238276,142.030145 125.000243,142.655609 124.48668,142.887263 C124.39701,142.927588 124.300819,142.954185 124.203813,142.966197 C123.907902,143.073443 123.584276,143.047704 123.3063,142.8967 C123.034029,142.696792 122.853875,142.386205 122.809855,142.038725 L122.434872,140.537268 L122.050923,139.019509 C121.064555,139.35412 120.364316,139.568614 119.947759,139.679292 C118.66059,140.03192 117.918776,139.799409 117.723133,138.99377 C117.5495,138.5236 117.734545,137.990797 118.155178,137.748848 C118.552171,137.574679 118.964652,137.439977 119.3861,137.346457 C119.801026,137.23492 120.502896,137.010989 121.489264,136.684958 L121.106129,135.15862 C120.953691,134.598362 120.858314,134.023518 120.820001,133.442669 C120.815925,133.157821 120.890107,132.878121 121.031948,132.635314 C121.184386,132.42082 121.40367,132.27239 121.6523,132.214906 C121.947395,132.125677 122.265315,132.166001 122.532694,132.326443 C122.800888,132.477446 122.994086,132.743419 123.061746,133.05658 C123.094353,133.20501 123.135112,133.445243 123.184838,133.777279 C123.232933,134.102452 123.282659,134.351265 123.323418,134.523718 L123.698401,136.016595 L124.64401,135.802101 L125.393975,135.56959 C125.728199,135.450331 125.980089,135.373114 126.143941,135.329357 C127.472684,135.029923 128.287864,135.260719 128.475355,136.084375" id="Fill-11" fill="#E8351F" mask="url(#mask-6)"></path>
                                <polygon id="Fill-12" fill="#A5C9F9" mask="url(#mask-6)" points="63.3544304 41.6421053 124.898734 41.6421053 124.898734 38.0210526 63.3544304 38.0210526"></polygon>
                                <polygon id="Fill-13" fill="#8ACEFC" mask="url(#mask-6)" points="63.3544304 50.6947368 110.417722 50.6947368 110.417722 47.0736842 63.3544304 47.0736842"></polygon>
                                <polygon id="Fill-14" fill="#A5C9F9" mask="url(#mask-6)" points="63.3544304 61.5578947 124.898734 61.5578947 124.898734 57.9368421 63.3544304 57.9368421"></polygon>
                                <polygon id="Fill-15" fill="#8ACEFC" mask="url(#mask-6)" points="63.3544304 70.6105263 110.417722 70.6105263 110.417722 66.9894737 63.3544304 66.9894737"></polygon>
                                <path d="M37.1075949,34.4 C26.6106149,34.4 18.1012658,42.9112282 18.1012658,53.4105263 L37.1075949,53.4105263 L37.1075949,72.4210526 C47.604575,72.4210526 56.1139241,63.9098244 56.1139241,53.4105263 C56.1139241,42.9112282 47.604575,34.4 37.1075949,34.4" id="Fill-16" fill="#BDD5FC" mask="url(#mask-6)"></path>
                                <path d="M16.2922243,54.3157895 C16.2848349,54.9944016 16.3152135,55.6730136 16.3825391,56.3483474 C16.4457595,57.0089287 16.5475689,57.6654122 16.6863253,58.315339 C16.9433119,59.5971618 17.3316655,60.8494797 17.8439967,62.0526229 C18.0082054,62.4460212 18.1970455,62.8722027 18.3940959,63.2164263 C18.5911464,63.5606498 18.771776,63.9540481 18.9852473,64.3146632 C19.1987187,64.6752783 19.4368213,65.0686766 19.674924,65.4292917 C19.9130266,65.7899069 20.0443936,65.9538228 20.2332336,66.2488716 C20.8120693,67.0069829 21.445915,67.7216565 22.1298443,68.3879749 C22.3539892,68.6174572 22.5838814,68.8387438 22.819521,69.0518345 C23.7661842,69.9082954 24.7916677,70.673783 25.8820136,71.3384622 C26.2432728,71.5597488 26.6209528,71.7646437 27.0068433,71.9613429 C27.3927338,72.158042 27.7786243,72.3547412 28.1809357,72.5268529 C28.583247,72.6989647 29.0019793,72.8628807 29.3632384,73.010405 C30.2869125,73.3488915 31.2335758,73.6226311 32.1958389,73.8299848 C33.5144349,74.0971679 34.8568412,74.2315789 36.2025316,74.2315789 L36.2025316,54.3157895 L16.2922243,54.3157895 Z" id="Fill-17" fill="#66D5E6" mask="url(#mask-6)"></path>
                                <polygon id="Fill-18" fill="#A5C9F9" mask="url(#mask-6)" points="19.9113924 94.1473684 124.898734 94.1473684 124.898734 90.5263158 19.9113924 90.5263158"></polygon>
                                <polygon id="Fill-19" fill="#A5C9F9" mask="url(#mask-6)" points="19.9113924 106.821053 124.898734 106.821053 124.898734 103.2 19.9113924 103.2"></polygon>
                                <polygon id="Fill-20" fill="#A5C9F9" mask="url(#mask-6)" points="19.9113924 119.494737 124.898734 119.494737 124.898734 115.873684 19.9113924 115.873684"></polygon>
                                <polygon id="Fill-21" fill="#A5C9F9" mask="url(#mask-6)" points="19.9113924 132.168421 86.8860759 132.168421 86.8860759 128.547368 19.9113924 128.547368"></polygon>
                                <polygon id="Fill-22" fill="#A5C9F9" mask="url(#mask-6)" points="19.9113924 144.842105 86.8860759 144.842105 86.8860759 141.221053 19.9113924 141.221053"></polygon>
                            </g>
                        </g>
                    </g>
                </g>
            </g>
        </g>
    </g>
</svg>