<?xml version="1.0" encoding="UTF-8"?>
<svg width="27px" height="25px" viewBox="0 0 27 25" version="1.1" xmlns="http://www.w3.org/2000/svg" xmlns:xlink="http://www.w3.org/1999/xlink">
    <!-- Generator: Sketch 49 (51002) - http://www.bohemiancoding.com/sketch -->
    <title>Page 1</title>
    <desc>Created with Sketch.</desc>
    <defs></defs>
    <g id="Page-1" stroke="none" stroke-width="1" fill="none" fill-rule="evenodd">
        <g id="道具箱" transform="translate(-143.000000, -396.000000)" fill="#FFFFFF">
            <g id="道具03" transform="translate(50.000000, 350.000000)">
                <g id="Page-1" transform="translate(93.000000, 46.000000)">
                    <path d="M9.22470633,17.6974123 C9.22470633,15.3948643 8.35657446,14.5394507 5.91455097,14.5394507 L4.25956802,14.5394507 L4.25956802,20.526552 C4.63944676,20.6580013 5.23626374,20.690963 6.05020841,20.690963 C8.11235316,20.690963 9.22470633,19.6381767 9.22470633,17.6974123 Z M5.88764684,10.4275877 C8.00397878,10.4275877 8.70917014,9.6710589 8.70917014,7.30258769 C8.70917014,5.26313699 7.84103827,4.34199867 6.07749147,4.34199867 C5.53467222,4.34199867 4.99204244,4.40792191 4.25956802,4.50660821 L4.25956802,10.4275877 L5.88764684,10.4275877 Z M0,24.5067671 L0,0.493232939 C2.33327018,0.16441098 4.06972338,0 5.56195529,0 C11.0697234,0 13.4844638,2.13813699 13.4844638,6.9408041 C13.4844638,9.70402052 12.5077681,11.4801754 10.5812808,12.1052548 L10.5812808,12.2369027 C12.8061766,12.7630973 14,14.8027465 14,17.9934712 C14,22.6317273 11.0426298,25 5.29064039,25 C3.58128079,25 1.62769989,24.835589 0,24.5067671 Z" id="Fill-1"></path>
                    <path d="M20.9802909,20 L24.0193136,20 L24.0193136,16.3106004 L20.9802909,16.3106004 L20.9802909,20 Z M22.5583363,2 C25.6167384,2 27,4.01247111 27,7.27704618 C27,9.06582218 26.3179601,10.0944272 25.5000659,11.0782933 C24.8376033,11.9055728 23.9999341,12.5317228 23.9999341,13.784023 L23.9999341,14.678411 L20.9802909,14.678411 L20.9802909,13.784023 C20.9802909,11.9503118 21.7598216,10.9664457 22.538759,10.0496882 C23.3180919,9.22240876 23.9803568,8.57388916 23.9803568,7.27704618 C23.9803568,6.20370209 23.3570487,5.57774822 22.5583363,5.57774822 C21.7598216,5.57774822 21.0584022,6.20370209 20.8634206,7.90319627 L18,7.25467667 C18.5062401,3.65475516 20.2013535,2 22.5583363,2 Z" id="Fill-3"></path>
                </g>
            </g>
        </g>
    </g>
</svg>