<?xml version="1.0" encoding="UTF-8"?>
<svg width="113px" height="59px" viewBox="0 0 113 59" version="1.1" xmlns="http://www.w3.org/2000/svg" xmlns:xlink="http://www.w3.org/1999/xlink">
    <!-- Generator: Sketch 49 (51002) - http://www.bohemiancoding.com/sketch -->
    <title>Group 4</title>
    <desc>Created with Sketch.</desc>
    <defs>
        <linearGradient x1="0%" y1="71.5169271%" x2="100%" y2="0%" id="linearGradient-1">
            <stop stop-color="#FFD743" stop-opacity="0.7" offset="0%"></stop>
            <stop stop-color="#FFB000" stop-opacity="0.6" offset="100%"></stop>
        </linearGradient>
        <linearGradient x1="91.8039773%" y1="100%" x2="0%" y2="6.08072917%" id="linearGradient-2">
            <stop stop-color="#FAC261" offset="0%"></stop>
            <stop stop-color="#FF6827" offset="100%"></stop>
        </linearGradient>
    </defs>
    <g id="Page-1" stroke="none" stroke-width="1" fill="none" fill-rule="evenodd">
        <g id="主页" transform="translate(-10.000000, -318.000000)">
            <g id="BANK" transform="translate(10.000000, 302.000000)">
                <g id="Group-4" transform="translate(0.000000, 16.000000)">
                    <path d="M10.9,55.3 C10.9,56.48 10.46,57.74 9.54,58.52 C8.02,59.82 6.62,59.8 4.7,59.8 L0,59.8000178 L0,45 L4.56,45 C6.34,45 8.02,45.02 9.3,46.44 C9.92,47.12 10.18,47.96 10.18,48.88 C10.18,50.14 9.56,51.24 8.46,51.86 C10.08,52.42 10.9,53.62 10.9,55.3 Z M6.56,49.44 C6.56,48.5 5.86,48.32 5.08,48.32 L3.62,48.32 L3.62,50.62 L5.06,50.62 C5.88,50.62 6.56,50.38 6.56,49.44 Z M7.28,55.06 C7.28,54 6.4,53.78 5.52,53.78 L3.62,53.78 L3.62,56.48 L5.5,56.48 C6.44,56.48 7.28,56.16 7.28,55.06 Z M26.58,59.8 L22.48,59.8 L21.76,57.66 L16.62,57.66 L15.84,59.8 L11.78,59.8 L17.72,45 L20.7,45 L26.58,59.8 Z M20.76,54.66 L19.24,49.6 L19.18,49.6 L17.66,54.66 L20.76,54.66 Z M40.58,59.8 L37.3,59.8 L31.66,50.8 L31.62,50.82 L31.72,59.8 L28.1,59.8 L28.1,45 L31.36,45 L37.08,54.3 L37.12,54.26 L36.96,45 L40.58,45 L40.58,59.8 Z M55.96,59.8 L51.54,59.8 L47.5,53.4 L47.46,53.4 L47.46,59.8 L43.68,59.8 L43.68,45 L47.46,45 L47.46,51.66 L47.5,51.66 L51.68,45 L55.64,45 L50.74,52.38 L55.96,59.8 Z" id="BANK" fill="url(#linearGradient-1)"></path>
                    <path d="M90.1960784,44.2105263 L90.1960784,46.3157895 L88.0392157,46.3157895 L88.0392157,44.2105263 C86.0843034,43.6358064 83.9255795,42.9758049 82.6470588,42.1052632 L83.7254902,40 C85.329781,40.915777 86.922686,41.435755 88.0392157,41.0526316 C90.5904548,41.435755 91.5545911,40.7957767 91.2745098,40 C91.5545911,37.0357911 83.2967379,37.8358162 83.7254902,32.6315789 C83.2967379,30.7357765 85.0363799,29.1558192 88.0392157,28.4210526 L88.0392157,26.3157895 L90.1960784,26.3157895 L90.1960784,28.4210526 C91.7851153,29.0958191 93.147496,29.8957746 94.5098039,30.5263158 L92.3529412,32.6315789 C91.5755014,31.7358252 90.3180369,31.195824 89.1176471,31.5789474 C87.2999472,31.195824 86.2519508,31.7557789 85.8823529,32.6315789 C86.2519508,35.3758105 94.5098039,34.5157853 94.5098039,38.9473684 C94.5098039,41.6558018 92.8540221,43.3358057 90.1960784,44.2105263 M89.1176471,24.2105263 C95.6692518,24.2105263 100.980392,29.3946058 100.980392,35.7894737 C100.980392,42.1843415 95.6692518,47.3684211 89.1176471,47.3684211 C82.5660423,47.3684211 77.254902,42.1843415 77.254902,35.7894737 C77.254902,29.3946058 82.5660423,24.2105263 89.1176471,24.2105263 Z M64.3137255,52.6315789 L64.3137255,21.0526316 L68.627451,21.0526316 L68.627451,52.6315789 L64.3137255,52.6315789 Z M60,60 L60,54.7368421 L115,54.7368421 L115,60 L60,60 Z M105.294118,52.6315789 L105.294118,21.0526316 L109.607843,21.0526316 L109.607843,52.6315789 L105.294118,52.6315789 Z M61.0784314,13.6842105 L86.9607843,7.10542736e-15 L112.843137,13.6842105 L112.843137,18.9473684 L61.0784314,18.9473684 L61.0784314,13.6842105 Z M79.4117647,51.5789474 L79.4117647,45.2631579 C80.6431287,46.4074409 82.1062741,47.3193718 83.7254902,48.4210526 L83.7254902,51.5789474 L79.4117647,51.5789474 Z M83.7254902,21.0526316 L83.7254902,23.1578947 C82.1062741,23.9156443 80.6431287,24.9801419 79.4117647,26.3157895 L79.4117647,21.0526316 L83.7254902,21.0526316 Z M96.6666667,21.0526316 L96.6666667,25.2631579 C95.3977207,24.1605858 93.938227,23.3137208 92.3529412,23.1578947 L92.3529412,21.0526316 L96.6666667,21.0526316 Z M92.3529412,52.6315789 L92.3529412,48.4210526 C93.938227,48.2794969 95.3977207,47.4264744 96.6666667,46.3157895 L96.6666667,52.6315789 L92.3529412,52.6315789 Z" id="Fill-13" fill="url(#linearGradient-2)"></path>
                </g>
            </g>
        </g>
    </g>
</svg>