<?xml version="1.0" encoding="UTF-8"?>
<svg width="50px" height="49px" viewBox="0 0 50 49" version="1.1" xmlns="http://www.w3.org/2000/svg" xmlns:xlink="http://www.w3.org/1999/xlink">
    <!-- Generator: Sketch 49 (51002) - http://www.bohemiancoding.com/sketch -->
    <title>邀请奖励02</title>
    <desc>Created with Sketch.</desc>
    <defs></defs>
    <g id="Page-1" stroke="none" stroke-width="1" fill="none" fill-rule="evenodd">
        <g id="每周签到奖励" transform="translate(-163.000000, -199.000000)">
            <g id="02" transform="translate(153.000000, 190.000000)">
                <g id="邀请奖励02" transform="translate(10.000000, 9.000000)">
                    <g id="Shape">
                        <path d="M2.4980018e-15,45.5128205 C1.66533454e-15,46.9289353 11.1928813,48.0769231 25,48.0769231 C38.8071187,48.0769231 50,46.9289353 50,45.5128205 C50,44.0967058 38.8071187,42.9487179 25,42.9487179 C11.1928813,42.9487179 1.66533454e-15,44.0967058 0,45.5128205 Z" fill-opacity="0.7" fill="#DAE9FF" fill-rule="nonzero"></path>
                        <path d="M10.0360577,44.8717949 C5.72916665,44.8717949 3.72596154,42.8799073 3.72596154,39.4936984 L3.72596154,18.5788787 C2.32371791,18.1805012 1.92307692,17.4833405 1.92307692,16.288208 L1.92307692,11.8064609 C1.92307692,10.3125452 2.62419874,9.61538456 6.02964742,9.61538462 L43.7900641,9.61538462 C46.09375,9.61538462 46.7948718,10.511734 46.7948718,12.0056497 L46.7948718,16.288208 C46.7948718,17.7821237 46.2940705,18.5788787 44.4911859,18.6784731 C44.6915064,19.7740112 44.4911859,36.0078951 44.4911859,39.2945096 C44.4911859,42.6807185 42.588141,44.8717948 38.28125,44.8717949 L29.6674679,44.8717949 L10.0360577,44.8717949 Z" fill="#D535F6" fill-rule="nonzero"></path>
                        <path d="M16.1068285,0.250275706 C14.333157,-0.743269582 13.7419332,1.44253003 13.5448586,2.93284793 C13.347784,4.42316583 13.347784,6.41025635 15.3185301,6.41025641 L22.3146789,6.41025641 C24.1868878,6.41025641 24.1868878,4.82058396 22.8073655,3.92639322 C21.7234551,3.33026606 18.2746493,1.44253003 16.1068285,0.250275706 Z M35.2230663,2.93284793 C35.0259917,1.44253003 34.5333051,-0.743269582 32.6610962,0.250275706 C30.5918128,1.44253003 27.0444697,3.23091151 25.9605593,3.92639322 C24.4824997,4.82058396 24.4824997,6.41025641 26.4532458,6.41025641 L33.4493947,6.41025641 C35.3216036,6.41025641 35.3216036,4.42316589 35.2230663,2.93284793 Z" fill="#97E73E" fill-rule="nonzero"></path>
                        <polygon fill="#FFFFFF" fill-rule="nonzero" points="20.5128205 18.5897436 27.5641026 18.5897436 27.5641026 44.8717949 20.5128205 44.8717949"></polygon>
                        <polygon fill="#8503A0" fill-rule="nonzero" points="3.84615385 18.5897436 44.8717949 18.5897436 44.8717949 25 3.84615385 25"></polygon>
                    </g>
                </g>
            </g>
        </g>
    </g>
</svg>