<?xml version="1.0" encoding="UTF-8"?>
<svg width="39px" height="31px" viewBox="0 0 39 31" version="1.1" xmlns="http://www.w3.org/2000/svg" xmlns:xlink="http://www.w3.org/1999/xlink">
    <!-- Generator: Sketch 49 (51002) - http://www.bohemiancoding.com/sketch -->
    <title>crown1</title>
    <desc>Created with Sketch.</desc>
    <defs>
        <linearGradient x1="33.2894987%" y1="43.96761%" x2="85.5828536%" y2="100%" id="linearGradient-1">
            <stop stop-color="#FFD743" offset="0%"></stop>
            <stop stop-color="#F7C136" offset="42.8648844%"></stop>
            <stop stop-color="#E38814" offset="100%"></stop>
        </linearGradient>
    </defs>
    <g id="Page-1" stroke="none" stroke-width="1" fill="none" fill-rule="evenodd">
        <g id="个人榜单" transform="translate(-248.000000, -127.000000)" fill="url(#linearGradient-1)">
            <path d="M283.535386,139.899695 C283.176328,139.53816 282.954483,139.040178 282.954483,138.490381 C282.954483,137.385812 283.849913,136.490381 284.954483,136.490381 C286.059052,136.490381 286.954483,137.385812 286.954483,138.490381 C286.954483,139.594951 286.059052,140.490381 284.954483,140.490381 C284.835827,140.490381 284.719586,140.480048 284.606608,140.460233 L280.704483,157.490381 L255.204483,157.490381 L251.302358,140.460233 C251.18938,140.480048 251.073138,140.490381 250.954483,140.490381 C249.849913,140.490381 248.954483,139.594951 248.954483,138.490381 C248.954483,137.385812 249.849913,136.490381 250.954483,136.490381 C252.059052,136.490381 252.954483,137.385812 252.954483,138.490381 C252.954483,139.040178 252.732637,139.53816 252.373579,139.899695 L261.154483,145.825635 L266.553342,135.238112 C265.035274,134.67031 263.954483,133.206562 263.954483,131.490381 C263.954483,129.281242 265.745344,127.490381 267.954483,127.490381 C270.163622,127.490381 271.954483,129.281242 271.954483,131.490381 C271.954483,133.206562 270.873691,134.67031 269.355623,135.238112 L274.754483,145.825635 L283.535386,139.899695 Z" id="crown1"></path>
        </g>
    </g>
</svg>