<?xml version="1.0" encoding="UTF-8"?>
<svg width="38px" height="30px" viewBox="0 0 38 30" version="1.1" xmlns="http://www.w3.org/2000/svg" xmlns:xlink="http://www.w3.org/1999/xlink">
    <!-- Generator: Sketch 49 (51002) - http://www.bohemiancoding.com/sketch -->
    <title>crown2</title>
    <desc>Created with Sketch.</desc>
    <defs>
        <linearGradient x1="84.6756785%" y1="94.4628906%" x2="24.8406661%" y2="38.2584635%" id="linearGradient-1">
            <stop stop-color="#B6B6B6" offset="0%"></stop>
            <stop stop-color="#E4E4E4" offset="100%"></stop>
        </linearGradient>
    </defs>
    <g id="Page-1" stroke="none" stroke-width="1" fill="none" fill-rule="evenodd">
        <g id="个人榜单" transform="translate(-300.000000, -142.000000)" fill="url(#linearGradient-1)">
            <path d="M334.580904,154.409314 C334.221845,154.047779 334,153.549797 334,153 C334,151.895431 334.895431,151 336,151 C337.104569,151 338,151.895431 338,153 C338,154.104569 337.104569,155 336,155 C335.881345,155 335.765103,154.989667 335.652125,154.969852 L331.75,172 L306.25,172 L302.347875,154.969852 C302.234897,154.989667 302.118655,155 302,155 C300.895431,155 300,154.104569 300,153 C300,151.895431 300.895431,151 302,151 C303.104569,151 304,151.895431 304,153 C304,153.549797 303.778155,154.047779 303.419096,154.409314 L312.2,160.335253 L317.598859,149.74773 C316.080791,149.179929 315,147.716181 315,146 C315,143.790861 316.790861,142 319,142 C321.209139,142 323,143.790861 323,146 C323,147.716181 321.919209,149.179929 320.401141,149.74773 L325.8,160.335253 L334.580904,154.409314 Z" id="crown2"></path>
        </g>
    </g>
</svg>