<?xml version="1.0" encoding="UTF-8"?>
<svg width="38px" height="30px" viewBox="0 0 38 30" version="1.1" xmlns="http://www.w3.org/2000/svg" xmlns:xlink="http://www.w3.org/1999/xlink">
    <!-- Generator: Sketch 49 (51002) - http://www.bohemiancoding.com/sketch -->
    <title>crown3</title>
    <desc>Created with Sketch.</desc>
    <defs>
        <linearGradient x1="12.4768709%" y1="20.1041667%" x2="80.5047286%" y2="100%" id="linearGradient-1">
            <stop stop-color="#FFBF73" offset="0%"></stop>
            <stop stop-color="#DA631F" offset="100%"></stop>
        </linearGradient>
    </defs>
    <g id="Page-1" stroke="none" stroke-width="1" fill="none" fill-rule="evenodd">
        <g id="个人榜单" transform="translate(-290.000000, -127.000000)" fill="url(#linearGradient-1)">
            <path d="M324.580904,139.409314 C324.221845,139.047779 324,138.549797 324,138 C324,136.895431 324.895431,136 326,136 C327.104569,136 328,136.895431 328,138 C328,139.104569 327.104569,140 326,140 C325.881345,140 325.765103,139.989667 325.652125,139.969852 L321.75,157 L296.25,157 L292.347875,139.969852 C292.234897,139.989667 292.118655,140 292,140 C290.895431,140 290,139.104569 290,138 C290,136.895431 290.895431,136 292,136 C293.104569,136 294,136.895431 294,138 C294,138.549797 293.778155,139.047779 293.419096,139.409314 L302.2,145.335253 L307.598859,134.74773 C306.080791,134.179929 305,132.716181 305,131 C305,128.790861 306.790861,127 309,127 C311.209139,127 313,128.790861 313,131 C313,132.716181 311.919209,134.179929 310.401141,134.74773 L315.8,145.335253 L324.580904,139.409314 Z" id="crown3"></path>
        </g>
    </g>
</svg>