<?xml version="1.0" encoding="UTF-8"?>
<svg width="90px" height="67px" viewBox="0 0 90 67" version="1.1" xmlns="http://www.w3.org/2000/svg" xmlns:xlink="http://www.w3.org/1999/xlink">
    <!-- Generator: Sketch 49 (51002) - http://www.bohemiancoding.com/sketch -->
    <title>Combined Shape</title>
    <desc>Created with Sketch.</desc>
    <defs>
        <linearGradient x1="-5.74652778%" y1="0%" x2="114.06041%" y2="77.8835359%" id="linearGradient-1">
            <stop stop-color="#FFD22E" stop-opacity="0.7" offset="0%"></stop>
            <stop stop-color="#FFB000" stop-opacity="0.5" offset="100%"></stop>
        </linearGradient>
    </defs>
    <g id="Page-1" stroke="none" stroke-width="1" fill="none" fill-rule="evenodd">
        <g id="银行" transform="translate(-237.000000, -369.000000)" fill="url(#linearGradient-1)">
            <path d="M273.075575,385.06119 C273.075575,385.06119 276.964342,381.904281 285.808687,382.697467 C333.33774,436 284.595253,436 284.595253,436 C234.916688,434.967131 273.075575,385.06119 273.075575,385.06119 Z M285.359427,409.285034 C281.550833,407.856291 279.982037,406.918432 279.981314,405.447223 C279.981314,404.196263 280.92317,402.946743 283.832523,402.946743 C287.061846,402.946743 289.122517,403.974574 290.285391,404.465457 L291.584777,399.420593 C290.106988,398.703702 288.089654,398.081821 285.088571,397.947224 L285.088571,394.018002 L280.700707,394.018002 L280.700707,398.261044 C275.907643,399.198904 273.129024,402.277358 273.129024,406.20658 C273.129024,410.535993 276.400239,412.767279 281.193304,414.373805 C284.508579,415.490167 285.942309,416.562624 285.942309,418.25912 C285.942309,420.044149 284.195108,421.025915 281.641841,421.025915 C278.728155,421.025915 276.086047,420.088055 274.204502,419.062383 L272.85889,424.286471 C274.562032,425.266797 277.473551,426.07006 280.473911,426.203937 L280.473911,430.442659 L284.866108,430.442659 L284.866108,425.892276 C290.016702,424.997603 292.839381,421.606049 292.839381,417.63508 C292.839381,413.614448 290.686258,411.159314 285.359427,409.285034 Z M284.893232,380.227232 C278.765123,379.327815 272.748447,382.56887 272.74919,382.56962 L267.566038,374.965867 C268.221268,374.326214 268.879469,373.754882 269.538414,373.239106 L274.007647,376.709895 C274.007647,376.709895 272.16602,374.629524 270.525716,372.50786 C275.783157,368.84938 280.933622,368.772802 284.300405,369.150437 C288.298645,369.599395 284.893232,380.227232 284.893232,380.227232 Z M256.398773,413.571577 C256.142014,416.023128 256.18229,418.437416 256.626044,420.734177 C218.322944,419.781075 247.890489,381.114499 247.890489,381.114499 C247.890489,381.114499 250.915497,378.658648 257.796203,379.277089 C261.037693,382.911778 263.701656,386.225421 265.867925,389.250984 C264.078524,392.181953 262.071202,395.809475 260.352284,399.753025 L260.352284,399.6312 L255.183304,399.6312 C254.955313,398.691714 254.845993,397.789491 254.845993,396.813457 C254.845993,395.009012 255.675245,393.279095 258.352873,393.279095 C259.745988,393.279095 260.802511,393.542811 261.517408,393.9563 L262.460296,389.635091 C261.632482,389.182188 260.088333,388.733585 258.011966,388.733585 C252.959498,388.733585 249.489298,391.850875 249.489298,396.587722 C249.489298,397.600304 249.603653,398.690997 249.791367,399.630484 L246.773552,399.630484 L246.773552,403.502373 L250.470304,403.502373 C250.54726,404.027654 250.58322,404.478407 250.58322,405.004405 C250.58322,407.557716 248.357258,409.701121 246.358566,410.526666 L246.358566,413.571577 L256.398773,413.571577 Z M254.885069,406.280383 C255.174047,405.466556 255.244413,404.655427 255.209571,403.772152 L258.226415,403.772152 C257.614302,405.442283 257.081435,407.150173 256.668122,408.860759 L253.132075,408.860759 L253.132075,408.791311 C253.989444,408.048956 254.563983,407.165681 254.885069,406.280383 Z M258.030348,377.4207 C253.296059,376.747501 248.646994,379.177215 248.646994,379.177215 L244.641509,373.474487 C245.14844,372.995175 245.657574,372.567038 246.166709,372.180706 L249.619712,374.782684 C249.619712,374.782684 248.197369,373.222218 246.928573,371.631479 C250.990628,368.88751 254.971133,368.829127 257.573376,369.11311 C260.661977,369.448268 258.030348,377.4207 258.030348,377.4207 Z M310.749308,379.277076 C347.857383,420.734888 309.803112,420.734888 309.803112,420.734171 C309.471835,420.727006 309.147054,420.717691 308.825159,420.704794 C309.069828,418.862623 309.038793,416.895777 308.720507,414.806406 C309.147054,414.847965 309.57793,414.870177 310.013859,414.870177 C312.436006,414.870177 314.630085,414.15724 315.918384,413.442154 L315.008996,409.272727 C314.213643,409.685442 312.435284,410.248627 310.694456,410.248627 C309.515861,410.248627 308.380569,410.029372 307.400452,409.537839 C307.163,408.838516 306.906784,408.131312 306.618089,407.411926 C306.391464,406.850892 306.143908,406.279109 305.884805,405.701594 L314.0628,405.701594 L314.0628,403.034709 L304.597227,403.034709 C304.418237,402.687197 303.761457,401.562262 303.564423,401.269205 L314.0628,401.269205 L314.0628,398.600887 L304.639088,398.600887 C304.903965,397.625704 305.321129,396.763015 305.850884,396.160422 C307.024427,394.732399 308.688751,394.132672 310.506083,394.132672 C312.169685,394.132672 313.723584,394.622055 314.705867,395.03477 L315.766819,390.751417 C314.403459,390.148108 312.397754,389.623616 310.090363,389.623616 C306.531481,389.623616 303.505962,391.052355 301.348692,393.456278 C300.846364,394.032359 300.398887,394.670062 300.009871,395.360786 C298.678268,393.377461 297.208812,391.333947 295.584906,389.225231 C298.2344,384.468975 300.808833,381.114231 300.808833,381.114231 C300.808833,381.114231 303.845178,378.658719 310.749308,379.277076 Z M309.822747,377.4207 C305.087483,376.747501 300.438181,379.177215 300.438916,379.177215 L296.433962,373.474487 C296.940184,372.995175 297.450079,372.567038 297.959239,372.180706 L301.412418,374.782684 C301.412418,374.782684 299.990002,373.222218 298.721877,371.631479 C302.782669,368.88751 306.764847,368.829127 309.365752,369.11311 C312.454511,369.448268 309.822747,377.4207 309.822747,377.4207 Z" id="Combined-Shape"></path>
        </g>
    </g>
</svg>