<?xml version="1.0" encoding="UTF-8"?>
<svg width="113px" height="57px" viewBox="0 0 113 57" version="1.1" xmlns="http://www.w3.org/2000/svg" xmlns:xlink="http://www.w3.org/1999/xlink">
    <!-- Generator: Sketch 49 (51002) - http://www.bohemiancoding.com/sketch -->
    <title>Group 5</title>
    <desc>Created with Sketch.</desc>
    <defs>
        <linearGradient x1="0%" y1="50%" x2="105.696601%" y2="50%" id="linearGradient-1">
            <stop stop-color="#A7E7FF" stop-opacity="0.8" offset="0%"></stop>
            <stop stop-color="#00D8FF" stop-opacity="0.6" offset="100%"></stop>
        </linearGradient>
        <linearGradient x1="100.828141%" y1="19.0943356%" x2="4.55107095%" y2="77.182734%" id="linearGradient-2">
            <stop stop-color="#9CF0FF" offset="0%"></stop>
            <stop stop-color="#0FBEFF" offset="100%"></stop>
        </linearGradient>
    </defs>
    <g id="Page-1" stroke="none" stroke-width="1" fill="none" fill-rule="evenodd">
        <g id="主页" transform="translate(-131.000000, -320.000000)">
            <g id="USER" transform="translate(131.000000, 302.000000)">
                <g id="Group-5" transform="translate(-1.000000, 18.000000)">
                    <path d="M11.6,52.14 C11.6,53.9 11.4,55.4 10.12,56.68 C9,57.82 7.56,58.28 5.98,58.28 C4.44,58.28 2.8,57.84 1.72,56.7 C0.38,55.28 0.24,54.02 0.24,52.14 L0.24,43.2 L4.02,43.2 L4.02,52.14 C4.02,53.48 4.24,54.96 5.94,54.96 C7.72,54.96 7.82,53.54 7.82,52.14 L7.82,43.2 L11.6,43.2 L11.6,52.14 Z M23.9,53.74 C23.9,56.84 21.66,58.28 18.74,58.28 C15.76,58.28 13.4,56.74 13.4,53.58 L13.4,53.1 L17.16,53.1 C17.16,54.06 17.6,55.12 18.7,55.12 C19.48,55.12 20.14,54.5 20.14,53.7 C20.14,52.74 19.34,52.42 18.56,52.08 C18.12,51.88 17.68,51.7 17.24,51.52 C15.32,50.72 13.62,49.6 13.62,47.28 C13.62,44.52 16.28,42.92 18.8,42.92 C20.24,42.92 21.86,43.46 22.8,44.6 C23.56,45.54 23.74,46.36 23.78,47.52 L20.04,47.52 C19.92,46.7 19.64,46.08 18.68,46.08 C18.02,46.08 17.38,46.54 17.38,47.24 C17.38,47.46 17.4,47.68 17.52,47.86 C17.88,48.46 19.82,49.22 20.44,49.5 C22.4,50.4 23.9,51.42 23.9,53.74 Z M33.92,58 L25.7,58 L25.7,43.2 L33.92,43.2 L33.92,46.52 L29.32,46.52 L29.32,48.82 L33.78,48.82 L33.78,52.14 L29.32,52.14 L29.32,54.68 L33.92,54.68 L33.92,58 Z M47.66,58 L43.34,58 L39.92,53.22 L39.88,53.22 L39.88,58 L36.26,58 L36.26,43.2 L40.94,43.2 C42.5,43.2 44.22,43.24 45.5,44.26 C46.72,45.24 47.32,46.76 47.32,48.3 C47.32,50.58 45.98,52.58 43.64,52.96 L47.66,58 Z M43.7,48.52 C43.7,47.06 42.56,46.52 41.26,46.52 L39.88,46.52 L39.88,50.64 L41.22,50.64 C42.64,50.64 43.7,50.04 43.7,48.52 Z" id="USER" fill="url(#linearGradient-1)"></path>
                    <path d="M107.32,44 C110.782184,44.2017627 124.83,50.2705363 124.83,57 L77.45,57 C77.45,50.2705363 91.497816,44.1604381 94.96,44 C96.4019594,43.4175019 96.4435612,40.2386301 95.99,40 C96.4435612,40.2386301 93.0352566,36.894359 91.87,32 C90.2924796,32.394611 89.0039395,27.605389 90.84,26 C90.9576012,24.1375472 88.5053266,12 101.14,12 C113.774369,12 111.280797,24.1375472 111.44,26 C113.192451,27.605389 111.98752,32.394611 110.41,32 C109.244338,36.894359 105.794837,40.2386301 106.29,40 C105.794837,40.2386301 105.836439,43.3761773 107.32,44 Z M83.63,44 C82.9006215,44.6283807 82.6097757,44.8347015 82.6,45 L62,45 C62,38.3119617 76.0446958,32.2018635 79.51,32 C80.9477854,31.4175019 80.9894797,28.2386301 80.54,28 C80.9894797,28.2386301 77.540619,24.8944598 76.42,20 C74.7980255,20.394611 73.5101682,15.6054898 75.39,14 C75.4630043,12.1375472 72.9696637,0 85.69,0 C93.4966594,0 95.5326813,4.66524812 95.99,9 C93.8290981,9.37172007 92.0006348,10.5277009 90.84,12 C86.8899867,16.1834298 87.0975452,21.7982373 87.75,25 C86.8899867,25.4723999 86.5574466,26.42206 86.72,27 C86.3081937,28.7753463 86.5158537,30.3025433 86.72,32 C87.4716782,32.9861243 88.2610298,34.1007806 88.78,35 C89.9230201,37.1146562 90.9620304,38.972551 91.87,40 C89.2584472,41.2431882 85.9341622,42.8117098 83.63,44 Z" id="Combined-Shape" fill="url(#linearGradient-2)"></path>
                </g>
            </g>
        </g>
    </g>
</svg>