<?xml version="1.0" encoding="UTF-8"?>
<svg width="59px" height="22px" viewBox="0 0 59 22" version="1.1" xmlns="http://www.w3.org/2000/svg" xmlns:xlink="http://www.w3.org/1999/xlink">
    <!-- Generator: Sketch 49 (51002) - http://www.bohemiancoding.com/sketch -->
    <title>Page 1</title>
    <desc>Created with Sketch.</desc>
    <defs>
        <polygon id="path-1" points="12.7821319 14.3615445 6.97916991 2.64450076 0.383180476 2.97347818 0 16.8900151 5.01041505 17.1571765 4.34591524 6.26228651 10.9157187 18 16.591114 17.1366999 17 1.1645853 12.0919266 1"></polygon>
        <polygon id="path-2" points="19.0891586 17.5276813 19 1.53386676 28.888447 1 29 3.8948814 23.3654249 3.68959255 23.1203432 8.53510385 28.2203851 8.329815 28.1090414 11.4299852 22.942026 11.0194076 22.7417329 15.3308592 29 15.2897628 29 18"></polygon>
        <path d="M44.8629064,18.8636915 L43.1892681,8.71467631 C42.8383186,10.2448036 42.4242341,11.6457617 41.946116,12.9177577 C41.4677731,14.1901685 40.9575258,15.2674776 40.4158233,16.1500998 C39.8736715,17.0325147 39.3196116,17.6905939 38.7543178,18.1247519 C38.1881252,18.558288 37.6423785,18.7017634 37.1164036,18.5547633 L34.2474699,17.7606729 L32,0.926577095 L35.7058651,0.375067792 L38.2878829,14.6496213 L40.8939415,2.80191606 L45.436738,3.26530827 L48.1861422,14.8704324 L50.5052849,0 L55,1.52224861 C54.3306795,4.43467386 53.6970831,6.99380142 53.0992107,9.2002533 C52.501563,11.4064978 51.9075102,13.2414066 51.3179509,14.7047723 C50.728167,16.1683453 50.1186113,17.2603751 49.4892838,17.9812766 C48.8592822,18.7017634 48.177829,19.0403403 47.4449242,18.9961781 L44.8629064,18.8636915 Z" id="path-3"></path>
    </defs>
    <g id="Page-1" stroke="none" stroke-width="1" fill="none" fill-rule="evenodd">
        <g id="iPhone-8-Copy-2" transform="translate(-303.000000, -434.000000)">
            <g id="Page-1" transform="translate(305.000000, 436.000000)">
                <g id="Fill-1">
                    <use fill="#FFFFFF" fill-rule="evenodd" xlink:href="#path-1"></use>
                    <path stroke="#F5A623" stroke-width="1" d="M12.1581913,11.9751099 L11.5645037,0.482032576 L17.512531,0.681491254 L17.0802353,17.5680498 L10.6485504,18.5463912 L4.97818018,8.41561908 L5.54361751,17.6863177 L-0.513222655,17.3633597 L-0.103893705,2.49714968 L7.28172037,2.12878944 L12.1581913,11.9751099 Z"></path>
                </g>
                <g id="Fill-2">
                    <use fill="#FFFFFF" fill-rule="evenodd" xlink:href="#path-2"></use>
                    <path stroke="#F5A623" stroke-width="1" d="M23.8398834,4.20721061 L23.6473654,8.01348505 L28.7394301,7.80851731 L28.589977,11.969777 L23.4175087,11.5587661 L23.2656606,14.8274079 L29.5,14.7864687 L29.5,18.5243959 L18.5918092,18.0045467 L18.4973522,1.06027601 L29.368524,0.473352982 L29.5203817,4.41417261 L23.8398834,4.20721061 Z"></path>
                </g>
                <g id="Fill-3">
                    <use fill="#FFFFFF" fill-rule="evenodd" xlink:href="#path-3"></use>
                    <path stroke="#F5A623" stroke-width="1" d="M43.0778622,11.1120775 C42.8720503,11.8034663 42.6508432,12.4639633 42.4141366,13.0937028 C41.9255404,14.393388 41.4019284,15.4992644 40.8418404,16.4118429 C40.2704353,17.3418709 39.6781511,18.0456755 39.0582929,18.5217395 C38.3754348,19.0446069 37.6722675,19.2292771 36.9830238,19.0366449 L33.7955988,18.1543994 L31.439217,0.504526624 L36.1116191,-0.190823355 L38.3356892,12.1048346 L40.5013495,2.25927477 L45.8412837,2.80397976 L48.0849595,12.2744451 L50.1028271,-0.664199454 L55.5885447,1.19367714 L55.4872972,1.63423707 C54.8168617,4.55151439 54.1817157,7.11705649 53.5818171,9.33098613 C52.9799058,11.5529697 52.3799692,13.4067013 51.7817119,14.8916565 C51.1728753,16.4025097 50.5376161,17.5406958 49.865682,18.3104033 C49.1403148,19.1399528 48.3154364,19.5495389 47.4193023,19.4955212 L44.4350952,19.3423977 L43.0778622,11.1120775 Z"></path>
                </g>
            </g>
        </g>
    </g>
</svg>