<?xml version="1.0" encoding="UTF-8"?>
<svg width="67px" height="53px" viewBox="0 0 67 53" version="1.1" xmlns="http://www.w3.org/2000/svg" xmlns:xlink="http://www.w3.org/1999/xlink">
    <!-- Generator: Sketch 49 (51002) - http://www.bohemiancoding.com/sketch -->
    <title>Fill 4</title>
    <desc>Created with Sketch.</desc>
    <defs>
        <linearGradient x1="4.11479628%" y1="1.1154263%" x2="100%" y2="100%" id="linearGradient-1">
            <stop stop-color="#8AF2FF" stop-opacity="0.727694746" offset="0%"></stop>
            <stop stop-color="#27B0FF" stop-opacity="0.691745924" offset="100%"></stop>
        </linearGradient>
    </defs>
    <g id="Page-1" stroke="none" stroke-width="1" fill="none" fill-rule="evenodd">
        <g id="答题起始页" transform="translate(-96.000000, -556.000000)" fill="url(#linearGradient-1)">
            <g id="评论" transform="translate(10.000000, 550.000000)">
                <path d="M126,30 C124.567264,30 123,31.5671391 123,34 C123,35.4331666 124.567264,37 126,37 C128.432811,37 130,35.4331666 130,34 C130,31.5671391 128.432811,30 126,30 M113,30 C111.566833,30 110,31.5671391 110,34 C110,35.4331666 111.566833,37 113,37 C115.432861,37 117,35.4331666 117,34 C117,31.5671391 115.432861,30 113,30 M102,30 C99.5672468,30 98,31.5671391 98,34 C98,35.4331666 99.5672468,37 102,37 C103.433053,37 105,35.4331666 105,34 C105,31.5671391 103.433053,30 102,30 M131,53 L105,53 L94,59 L94,53 C94.2014431,52.5954204 94.2128894,52.5457725 94,52 C89.5911341,51.9153253 86,48.0899285 86,43 L86,22 C86,17.1187842 90.2047174,13 95,13 L131,13 C135.795584,13 140,17.1187842 140,22 L140,43 C139.999699,48.4838658 135.795283,52.6032402 131,53 Z M153,36 C153,41.0899285 149.390312,44.9153991 145,45 C144.744678,45.5458463 144.756183,45.5954204 145,46 L145,52 C144.760346,52 142.260935,50.9393939 140,50 C141.287285,48.078332 142.143534,45.7299788 142,43 L142,22 C142.143685,15.6937348 136.890305,10.5738039 130,11 L100,11 C101.635895,7.83844786 104.677804,6 108,6 L144,6 C148.773558,6 153,10.1187842 153,15 L153,36 Z" id="Fill-4"></path>
            </g>
        </g>
    </g>
</svg>