<?xml version="1.0" encoding="UTF-8"?>
<svg width="87px" height="130px" viewBox="0 0 87 130" version="1.1" xmlns="http://www.w3.org/2000/svg" xmlns:xlink="http://www.w3.org/1999/xlink">
    <!-- Generator: Sketch 49 (51002) - http://www.bohemiancoding.com/sketch -->
    <title>svg3</title>
    <desc>Created with Sketch.</desc>
    <defs></defs>
    <g id="Page-1" stroke="none" stroke-width="1" fill="none" fill-rule="evenodd">
        <g id="道具箱" transform="translate(-69.000000, -360.000000)">
            <g id="道具03" transform="translate(50.000000, 350.000000)">
                <g id="svg3" transform="translate(19.000000, 10.000000)">
                    <g id="资源-3">
                        <path d="M10.5706719,97.4635806 C10.5706719,99.7323274 14.6111858,102.789309 19.7624111,105.304808 L19.7624111,79.2587724 C19.1778261,80.0812788 18.5829249,80.9414834 17.9880237,81.8256777 C11.1139921,92.0316113 10.5741107,96.3737596 10.5706719,97.4635806 Z" id="Shape"></path>
                        <path d="M60.9275099,60.080665 C56.3608696,58.8503325 49.7894466,57.4760614 43.2352174,57.4760614 C36.7635178,57.4760614 30.3055731,58.8469054 25.8077075,60.0635294 C22.2369644,61.0514762 19.7647874,64.2903195 19.7624111,67.9835806 L19.7624111,105.304808 C22.510047,106.645645 25.3677379,107.749773 28.3042292,108.605115 C30.1412021,109.107771 31.5646395,110.556719 32.0300421,112.397702 C32.4954446,114.238684 31.9307967,116.18683 30.5520897,117.496927 C29.1733826,118.807023 27.1939559,119.276347 25.3709881,118.725371 C25.2471937,118.6911 23.6516206,118.225013 21.3373518,117.371662 C21.1482213,124.722813 21.4783399,129.990281 21.4783399,129.990281 C21.4783399,129.990281 26.8083794,133.828645 43.8679447,133.828645 C60.9275099,133.828645 65.8517787,130.007417 65.8517787,130.007417 C65.8517787,130.007417 67.0003162,117.512174 67.0003162,112.556573 L67.0003162,68.0041432 C66.9960668,64.3018593 64.5103932,61.0586832 60.9275099,60.080665 Z" id="Shape" fill="#FFFFFF" fill-rule="nonzero"></path>
                        <path d="M54.1497628,83.2410742 C54.1497628,88.1932481 49.5556126,88.6010742 43.3796443,88.6010742 C39.1603162,88.6010742 34.2257312,87.9807673 34.2257312,83.0217391 L33.4485771,67.9835806 C33.4485771,64.2925831 35.2057708,58.0449616 35.2057708,58.0449616 C35.2057708,58.0449616 36.7635178,57.4829156 43.2352174,57.4829156 C49.7894466,57.4829156 52.8636759,58.3602558 52.8636759,58.3602558 C52.8636759,58.3602558 54.1566403,60.3891049 54.1566403,64.0938107 L54.1497628,83.2410742 Z" id="Shape" fill="#E6E6E6" fill-rule="nonzero"></path>
                        <path d="M40.7421344,48.2057289 L46.9903162,48.2057289 C48.8419982,48.2057289 50.343083,49.7017391 50.343083,51.5471611 L50.343083,63.4597954 C50.343083,66.2440168 48.0783694,68.5010742 45.2847036,68.5010742 L42.4443083,68.5010742 C39.6506425,68.5010742 37.3859289,66.2440168 37.3859289,63.4597954 L37.3859289,51.5505882 C37.3850152,50.6631975 37.7383209,49.8118903 38.3679297,49.18441 C38.9975386,48.5569297 39.8517335,48.2048183 40.7421344,48.2057289 Z" id="Shape" fill="#CBAA9A" fill-rule="nonzero"></path>
                        <ellipse id="Oval" fill="#E1BD96" fill-rule="nonzero" cx="43.8679447" cy="36.7009207" rx="15.4158498" ry="20.7785678"></ellipse>
                        <path d="M68.898498,24.586087 C68.216853,23.2754105 67.2723106,22.1182625 66.1234387,21.1863939 C66.4415344,20.2772881 66.5381844,19.3058334 66.405415,18.3521739 C66.0615415,15.9977494 64.3421739,14.0888491 61.9350593,12.9784655 C62.1104348,9.85294118 60.9618972,7.06670077 58.6132411,5.71641944 C56.4537154,4.47237852 53.7474308,4.71227621 51.2852964,6.09340153 C49.7858104,3.8459017 47.5978603,2.14136767 45.0474308,1.23375959 C39.6623715,-0.795089514 34.0778656,0.757391304 32.4513439,4.68485934 C30.45,3.21805627 28.125415,2.65258312 25.9933992,3.35856777 C22.8985375,4.38670077 21.0966403,7.75897698 21.1447826,11.7070077 C18.1427668,12.0976982 15.6875099,13.650179 14.7590514,16.1074169 C14.0713043,17.8895141 14.3188933,19.8463939 15.2611067,21.6524808 C13.7215612,22.7662529 12.4388737,24.195342 11.4991304,25.8438363 C8.57964427,30.881688 9.26395257,36.7214834 13.0259289,38.8874169 C14.7452964,39.8744246 16.8085375,39.9155499 18.8167589,39.2301279 C20.4051571,40.3857167 22.2964329,41.0560822 24.2602767,41.1595908 C26.633004,41.3309463 28.8062846,40.7826087 30.333083,39.7887468 C30.4924772,40.0687357 30.6878411,40.3268042 30.9142292,40.5564194 C32.9774704,42.6126854 37.1864822,41.8073146 40.2779051,38.7263427 C40.4429644,38.5618414 40.5977075,38.3836317 40.7455731,38.2259847 C41.0505013,38.3345209 41.3684598,38.4025068 41.6912253,38.4281841 C43.7544664,38.578977 45.6595257,36.9648082 46.7255336,34.4835806 C49.5452964,33.7124808 51.8423715,32.1257289 53.1594071,30.1791304 C53.2065042,30.7025366 53.2880633,31.2222925 53.4035573,31.7350384 C54.3767194,35.9846547 57.4922134,38.9045524 60.3566798,38.2465473 C62.1276285,37.8455754 63.3862055,36.1902813 63.8641897,33.9626598 C65.2637549,34.6035294 66.6942688,34.6926343 67.8840711,34.0689003 C70.4940711,32.6774936 70.937668,28.4450128 68.898498,24.586087 Z" id="Shape" fill="#291929" fill-rule="nonzero"></path>
                        <path d="M52.3306719,88.5085422 C52.3306719,88.5085422 48.0356917,90.1775448 43.7716601,90.1775448 C39.5695257,90.1775448 35.4017787,88.5085422 35.4017787,88.5085422 L35.4017787,61.732532 C35.4017787,61.732532 39.6348617,63.4015345 43.8679447,63.4015345 C48.1010277,63.4015345 52.3306719,61.732532 52.3306719,61.732532 L52.3306719,88.5085422 Z" id="Shape" fill="#74C290" fill-rule="nonzero"></path>
                        <polygon id="Shape" fill="#D6E6FF" fill-rule="nonzero" points="43.1183004 97.4498721 42.7537945 92.833555 52.8567984 58.3534015 60.6764822 67.9630179 55.9963636 73.0659847 61.9109881 80.2012276"></polygon>
                        <polygon id="Shape" fill="#D6E6FF" fill-rule="nonzero" points="35.1060474 58.3534015 43.8679447 99.8694118 25.4019368 81.1848082 32.643913 73.0694118 27.3792095 68.0795396"></polygon>
                        <polygon id="Shape" fill="#FFFFFF" fill-rule="nonzero" points="44.8583004 99.9036829 35.1060474 58.3534015 28.9025692 67.8910486 33.9231225 72.8706394 26.4713834 81.14711"></polygon>
                        <polygon id="Shape" fill="#FFFFFF" fill-rule="nonzero" points="43.3796443 95.3421995 42.0316601 91.4867008 52.8567984 58.3534015 59.0637154 67.8910486 54.0397233 72.8706394 60.9275099 80.0470077"></polygon>
                        <path d="M28.3042292,108.605115 C25.3677379,107.749773 22.510047,106.645645 19.7624111,105.304808 C14.6043083,102.789309 10.5672332,99.7323274 10.5706719,97.4635806 C10.5706719,96.3737596 11.1139921,92.0316113 17.9880237,81.8153964 C18.5829249,80.931202 19.1778261,80.0709974 19.7624111,79.248491 L19.7624111,67.9835806 C19.7630059,65.9105465 20.5490285,63.9141891 21.9632016,62.3939642 C20.4152372,62.4014017 18.9488943,63.0869746 17.9536364,64.2685934 C14.958498,67.8156522 0.0240711462,86.0958568 0,97.4395908 C0,103.714629 4.56664032,109.276829 13.6105138,113.978824 C16.1131466,115.26814 18.6937291,116.401268 21.3373518,117.371662 C23.6481818,118.225013 25.2471937,118.6911 25.3709881,118.725371 C27.1939559,119.276347 29.1733826,118.807023 30.5520897,117.496927 C31.9307967,116.18683 32.4954446,114.238684 32.0300421,112.397702 C31.5646395,110.556719 30.1412021,109.107771 28.3042292,108.605115 Z" id="Shape" fill="#E8F4FC" fill-rule="nonzero"></path>
                        <ellipse id="Oval" fill="#E4B08E" fill-rule="nonzero" transform="translate(28.643013, 110.412230) rotate(-29.886527) translate(-28.643013, -110.412230) " cx="28.6430134" cy="110.41223" rx="6.908058" ry="2.91275946"></ellipse>
                        <path d="M58.4241107,108.605115 C61.360602,107.749773 64.2182929,106.645645 66.9659289,105.304808 C72.1240316,102.789309 76.1611067,99.7323274 76.157668,97.4635806 C76.157668,96.3737596 75.6143478,92.0316113 68.7403162,81.8153964 C68.145415,80.931202 67.5505138,80.0709974 66.9659289,79.248491 L66.9659289,67.9835806 C66.9643989,65.9100825 66.1771246,63.9136654 64.7616996,62.3939642 C66.310868,62.4003959 67.7786699,63.0860629 68.7747036,64.2685934 C71.7664032,67.8156522 86.7042688,86.0958568 86.7283399,97.4395908 C86.7283399,103.714629 82.1616996,109.276829 73.1178261,113.978824 C70.6148964,115.267521 68.0343529,116.400632 65.3909881,117.371662 C63.0767194,118.225013 61.4811462,118.6911 61.3573518,118.725371 C59.534384,119.276347 57.5549573,118.807023 56.1762503,117.496927 C54.7975433,116.18683 54.2328953,114.238684 54.6982979,112.397702 C55.1637004,110.556719 56.5871378,109.107771 58.4241107,108.605115 Z" id="Shape" fill="#E8F4FC" fill-rule="nonzero"></path>
                        <ellipse id="Oval" fill="#E4B08E" fill-rule="nonzero" transform="translate(58.199398, 109.974314) rotate(-60.000000) translate(-58.199398, -109.974314) " cx="58.1993985" cy="109.974314" rx="2.9126087" ry="6.86107417"></ellipse>
                        <path d="M56.0513834,106.744194 C56.0513834,115.538159 52.5954545,124.345831 52.5954545,124.345831 L29.4493281,124.345831 C29.4493281,124.345831 32.8880632,115.538159 32.8880632,106.744194 C32.8880632,97.9502302 29.4493281,89.2659335 29.4493281,89.2659335 L52.6126482,89.2659335 C52.6126482,89.2659335 56.0513834,97.9879284 56.0513834,106.744194 Z" id="Shape" fill="#D1EAF9" fill-rule="nonzero"></path>
                        <ellipse id="Oval" fill="#F8C9AE" fill-rule="nonzero" cx="29.8035178" cy="114.229003" rx="7.81624506" ry="5.6341688"></ellipse>
                        <ellipse id="Oval" fill="#F8C9AE" fill-rule="nonzero" cx="56.9248221" cy="114.229003" rx="7.81624506" ry="5.6341688"></ellipse>
                    </g>
                </g>
            </g>
        </g>
    </g>
</svg>