<?xml version="1.0" encoding="UTF-8"?>
<svg width="113px" height="55px" viewBox="0 0 113 55" version="1.1" xmlns="http://www.w3.org/2000/svg" xmlns:xlink="http://www.w3.org/1999/xlink">
    <!-- Generator: Sketch 49 (51002) - http://www.bohemiancoding.com/sketch -->
    <title>Group 6</title>
    <desc>Created with Sketch.</desc>
    <defs>
        <linearGradient x1="0%" y1="50%" x2="100%" y2="50%" id="linearGradient-1">
            <stop stop-color="#A7FFA7" stop-opacity="0.9" offset="0%"></stop>
            <stop stop-color="#88FF71" stop-opacity="0.3" offset="100%"></stop>
        </linearGradient>
        <linearGradient x1="13.1055727%" y1="15.6567749%" x2="82.7106154%" y2="93.3454932%" id="linearGradient-2">
            <stop stop-color="#00DF1E" offset="0%"></stop>
            <stop stop-color="#85FF85" offset="100%"></stop>
        </linearGradient>
    </defs>
    <g id="Page-1" stroke="none" stroke-width="1" fill="none" fill-rule="evenodd">
        <g id="主页" transform="translate(-252.000000, -322.000000)">
            <g id="道具箱" transform="translate(252.000000, 302.000000)">
                <g id="Group-6" transform="translate(0.000000, 20.000000)">
                    <path d="M9.74,44.52 L6.84,44.52 L6.84,56 L3.06,56 L3.06,44.52 L0.14,44.52 L0.14,41.2 L9.74,41.2 L9.74,44.52 Z M26.24,48.6 C26.24,52.98 22.74,56.28 18.4,56.28 C14.22,56.28 10.62,53.04 10.62,48.78 C10.62,47.68 10.8,46.64 11.2,45.62 C11.42,45.04 11.78,44.46 12.16,43.96 C13.68,41.96 15.9,40.92 18.42,40.92 C22.74,40.92 26.24,44.24 26.24,48.6 Z M22.46,48.62 C22.46,46.32 20.86,44.24 18.44,44.24 C16.02,44.24 14.4,46.24 14.4,48.56 C14.4,50.92 16.02,52.96 18.48,52.96 C20.86,52.96 22.46,50.88 22.46,48.62 Z M43.26,48.6 C43.26,52.98 39.76,56.28 35.42,56.28 C31.24,56.28 27.64,53.04 27.64,48.78 C27.64,47.68 27.82,46.64 28.22,45.62 C28.44,45.04 28.8,44.46 29.18,43.96 C30.7,41.96 32.92,40.92 35.44,40.92 C39.76,40.92 43.26,44.24 43.26,48.6 Z M39.48,48.62 C39.48,46.32 37.88,44.24 35.46,44.24 C33.04,44.24 31.42,46.24 31.42,48.56 C31.42,50.92 33.04,52.96 35.5,52.96 C37.88,52.96 39.48,50.88 39.48,48.62 Z M53.56,56 L45.4,56 L45.4,41.2 L49.18,41.2 L49.18,52.68 L53.56,52.68 L53.56,56 Z" id="TOOL" fill="url(#linearGradient-1)"></path>
                    <path d="M98.7199132,29.9745959 C98.7199132,34.2383739 95.4924159,37.695952 91.5115632,37.695952 C87.5310693,37.695952 84.3041459,34.2383739 84.3041459,29.9745959 C84.3041459,29.3023617 84.408386,28.6633007 84.5580383,28.0443983 L62.6800287,28.0443983 L62.6800287,49.2779861 C62.6800287,53.54233 65.907239,56.999908 69.8883786,56.999908 L113.13568,56.999908 C117.116533,56.999908 120.343456,53.54233 120.343456,49.2779861 L120.343456,28.0443983 L98.461788,28.0443983 C98.6128752,28.6633007 98.7199132,29.3023617 98.7199132,29.9745959 M113.136003,7.56132358 L113.135716,7.56132358 C117.116497,7.56132358 120.343492,10.9388642 120.343492,15.1054537 L120.343492,24.5188927 L62.6799928,24.5188927 L62.6799928,15.1054537 C62.6799928,10.9394171 65.9069162,7.56132358 69.8883428,7.56132358 L80.699684,7.56132358 L80.699684,3.78967317 C80.699684,1.70731138 82.3124282,0.0174699187 84.3035361,0.0174699187 L98.7201643,0.0174699187 C100.709048,0.0174699187 102.323801,1.70731138 102.323801,3.78967317 L102.323801,7.56132358 L113.136003,7.56132358 Z M98.7198773,7.56132358 L98.7198773,5.67522195 C98.7198773,4.63455935 97.9133617,3.78967317 96.9176643,3.78967317 L86.1057491,3.78967317 C85.1100517,3.78967317 84.30411,4.63455935 84.30411,5.67522195 L84.30411,7.56132358 L98.7198773,7.56132358 Z M91.5098773,33.9653642 C89.5187694,33.9653642 87.9079622,32.2746935 87.9079622,30.1934374 C87.909397,29.5347911 88.0811457,28.8866488 88.4076403,28.3076122 L94.614697,28.3076122 C94.9249064,28.8652951 95.1135142,29.5026569 95.1135142,30.1934374 C95.1135142,32.2744171 93.4993351,33.9653642 91.5098773,33.9653642 Z" id="Fill-4" fill="url(#linearGradient-2)"></path>
                </g>
            </g>
        </g>
    </g>
</svg>