<?xml version="1.0" encoding="UTF-8"?>
<svg width="76px" height="129px" viewBox="0 0 76 129" version="1.1" xmlns="http://www.w3.org/2000/svg" xmlns:xlink="http://www.w3.org/1999/xlink">
    <!-- Generator: Sketch 49 (51002) - http://www.bohemiancoding.com/sketch -->
    <title>svg1</title>
    <desc>Created with Sketch.</desc>
    <defs></defs>
    <g id="Page-1" stroke="none" stroke-width="1" fill="none" fill-rule="evenodd">
        <g id="道具箱" transform="translate(-72.000000, -148.000000)">
            <g id="道具01" transform="translate(50.000000, 137.000000)">
                <g id="Group">
                    <g id="svg1">
                        <g transform="translate(16.000000, 11.000000)">
                            <g transform="translate(5.375000, 0.000000)">
                                <path d="M58.265,116.785714 C55.8136074,116.802139 53.6861147,115.104092 53.1664333,112.71632 C52.6467518,110.328548 53.8771082,107.904537 56.115,106.907143 C56.19025,106.907143 65.704,102.482143 65.704,94.5107143 C65.704,86.9142857 55.48075,75.6321429 51.901,72.2785714 C50.4790106,71.0360833 49.8509811,69.1190159 50.2633364,67.2795844 C50.6756917,65.4401528 52.0626492,63.9717996 53.8799974,63.4506741 C55.6973456,62.9295486 57.6551648,63.4387855 58.98525,64.7785714 C60.7805,66.4285714 76.11,81.15 76.11,94.5321429 C76.11,109.264286 60.9955,116.078571 60.3505,116.367857 C59.6919974,116.649997 58.9817402,116.792307 58.265,116.785714 Z" id="Shape" fill="#D6E6FF" fill-rule="nonzero"></path>
                                <path d="M11.008,96.5035714 C11.008,100.146429 18.15675,102.685714 24.19825,103.842857 C25.0086685,100.158841 25.5440513,96.4200307 25.8,92.6571429 C25.8,88.7142857 24.3595,83.25 23.091,79.2107143 C16.75925,85.3071429 11.008,92.3464286 11.008,96.5035714 Z" id="Shape"></path>
                                <path d="M41.925,68.5714286 C45.9003761,68.5655281 49.1215798,65.355026 49.1275,61.3928571 L49.1275,58.5428571 C48.5098996,58.4046415 47.8792139,58.3328026 47.24625,58.3285714 L36.55,58.3285714 C35.9170361,58.3328026 35.2863504,58.4046415 34.66875,58.5428571 L34.66875,61.3607143 C34.6629802,63.2785913 35.426315,65.1192639 36.7890028,66.4734003 C38.1516905,67.8275367 40.0007557,68.5828702 41.925,68.5714286 Z" id="Shape" fill="#D6E6FF" fill-rule="nonzero"></path>
                                <path d="M59.9635,92.4964286 C59.9635,85.9178571 62.89825,73.7464286 62.89825,73.7464286 C62.89825,67.6928571 55.45925,59.9142857 49.0845,58.5428571 L49.0845,61.3607143 C48.934918,65.2204046 45.7520688,68.2725124 41.876625,68.2725124 C38.0011812,68.2725124 34.818332,65.2204046 34.66875,61.3607143 L34.66875,58.5428571 C31.9731348,59.2490871 29.49731,60.6154743 27.46625,62.5178571 C23.908,65.6571429 21.20975,70.0178571 21.20975,73.7464286 C21.20975,73.7464286 22.09125,76.0392857 23.08025,79.2107143 C24.34875,83.25 25.8,88.7142857 25.8,92.6571429 C25.5475923,96.4197621 25.0158031,100.158569 24.209,103.842857 C23.5855,107.057143 22.84375,110.614286 22.059,113.957143 C20.339,121.789286 18.662,128.635714 18.662,128.635714 C18.662,135.289286 26.62775,134.378571 33.31425,134.378571 L50.74,134.378571 C57.4265,134.378571 65.145,135.642857 65.145,129.021429 C65.145,128.989286 59.9635,99.0857143 59.9635,92.4964286 Z" id="Shape" fill="#F3F9FF" fill-rule="nonzero"></path>
                                <path d="M54.06175,46.6392857 C54.06175,46.6392857 61.5115,49.5321429 61.11375,56.7964286 C60.716,64.0607143 54.825,67.0607143 47.20325,66.6321429 C48.474299,66.1288561 49.5875905,65.2966615 50.42825,64.2214286 C51.7935,62.4214286 44.892,53.1321429 54.06175,46.6392857 Z" id="Shape" fill="#322723" fill-rule="nonzero"></path>
                                <path d="M36.55,49.9821429 L47.20325,49.9821429 L47.20325,61.3607143 C47.20325,64.3193826 44.7967805,66.7178571 41.82825,66.7178571 C38.8597195,66.7178571 36.45325,64.3193826 36.45325,61.3607143 L36.45325,49.9821429 L36.55,49.9821429 Z" id="Shape" fill="#E0BBA8" fill-rule="nonzero"></path>
                                <ellipse id="Oval" fill="#E4B08E" fill-rule="nonzero" transform="translate(26.415286, 40.426879) rotate(-27.290000) translate(-26.415286, -40.426879) " cx="26.4152859" cy="40.4268792" rx="3.92375" ry="5.34642857"></ellipse>
                                <ellipse id="Oval" fill="#E4B08E" fill-rule="nonzero" transform="translate(57.632680, 40.443251) rotate(-62.710000) translate(-57.632680, -40.443251) " cx="57.6326795" cy="40.4432505" rx="5.36425" ry="3.91071429"></ellipse>
                                <ellipse id="Oval" fill="#F8C9AE" fill-rule="nonzero" cx="41.925" cy="36.4714286" rx="17.3505" ry="19.3821429"></ellipse>
                                <path d="M57.19,34.0714286 C57.19,34.0714286 58.49075,41.1 57.19,44.3785714 C57.19,44.3785714 59.82375,42.3428571 60.01725,34.9285714 C60.21075,27.5142857 57.19,34.0714286 57.19,34.0714286 Z" id="Shape" fill="#322723" fill-rule="nonzero"></path>
                                <path d="M49.99825,13.9285714 C49.99825,13.9285714 61.4255,16.6821429 61.662,31.3285714 C61.8985,45.975 46.02075,27.4607143 45.666,22.7571429 C45.31125,18.0535714 49.99825,13.9285714 49.99825,13.9285714 Z" id="Shape" fill="#322723" fill-rule="nonzero"></path>
                                <path d="M50.525,16.7785714 C50.525,16.7785714 51.987,37.5 23.98325,41.0464286 C23.98325,41.0464286 43.69875,39.6428571 50.525,16.7785714 Z" id="Shape" fill="#322723" fill-rule="nonzero"></path>
                                <path d="M50.396,14.6571429 C50.396,14.6571429 37.95825,7.97142857 29.1325,16.2964286 C20.30675,24.6214286 20.0165,37.6607143 20.0165,37.6607143 C20.0165,37.6607143 34.873,40.5 46.9775,25.9928571 C49.5784716,22.8147243 50.8079315,18.7378467 50.396,14.6571429 Z" id="Shape" fill="#322723" fill-rule="nonzero"></path>
                                <path d="M52.2235,14.7 C48.8384792,15.3897737 45.3907351,15.7272985 41.93575,15.7071429 C38.4771883,15.7277316 35.0258352,15.3902062 31.63725,14.7 L27.48775,2.20714286 C32.1786684,0.827623775 37.0348888,0.0852128433 41.925,-5.32907052e-15 C46.8187525,0.0838584134 51.6787059,0.826287217 56.373,2.20714286 L52.2235,14.7 Z" id="Shape" fill="#FFFFFF" fill-rule="nonzero"></path>
                                <rect id="Rectangle-path" fill="#EF8170" fill-rule="nonzero" x="37.5175" y="6.68571429" width="8.71825" height="2.34642857"></rect>
                                <rect id="Rectangle-path" fill="#EF8170" fill-rule="nonzero" transform="translate(41.887375, 7.858929) rotate(-90.000000) translate(-41.887375, -7.858929) " x="37.52825" y="6.68571429" width="8.71825" height="2.34642857"></rect>
                                <path d="M57.663,78.2142857 C57.663,79.2 57.663,80.1857143 57.56625,80.7964286 C57.5490219,81.1566118 57.250794,81.4396948 56.889,81.4392857 L51.6,81.4392857 C51.4098305,81.4396563 51.2279889,81.3615587 51.0976533,81.2235371 C50.9673176,81.0855155 50.900114,80.8998818 50.912,80.7107143 C50.912,80.1107143 50.998,79.2107143 50.998,78.2892857 C50.998,77.1535714 50.92275,76.0071429 50.8905,75.4285714 C50.8811259,75.333163 50.9135696,75.2383707 50.9794909,75.1685619 C51.0454123,75.0987532 51.1383816,75.0607369 51.2345,75.0642857 L57.17925,75.0642857 C57.3569891,75.0694823 57.501463,75.2088312 57.5125,75.3857143 C57.58775,75.8678571 57.663,77.0142857 57.663,78.2142857 Z" id="Shape" fill="#D6E6FF" fill-rule="nonzero"></path>
                                <path d="M57.41575,77.9678571 C57.41575,78.9535714 57.41575,79.9285714 57.32975,80.55 C57.3070135,80.911877 57.0055437,81.193566 56.64175,81.1928571 L51.385,81.1928571 C51.1948305,81.1932277 51.0129889,81.1151301 50.8826533,80.9771085 C50.7523176,80.8390869 50.685114,80.6534532 50.697,80.4642857 C50.697,79.8642857 50.783,78.9535714 50.783,78.0428571 C50.783,76.9071429 50.7185,75.75 50.6755,75.1821429 C50.6726053,75.088358 50.7072317,74.9972723 50.7717533,74.9289458 C50.8362749,74.8606194 50.9253999,74.8206561 51.0195,74.8178571 L56.975,74.8178571 C57.1568969,74.8175027 57.3076318,74.9583472 57.319,75.1392857 C57.35125,75.675 57.41575,76.8214286 57.41575,77.9678571 Z" id="Shape" fill="#FFFFFF" fill-rule="nonzero"></path>
                                <path d="M26.961,104.282143 C26.961,104.282143 25.9505,104.175 24.19825,103.842857 C18.15675,102.685714 11.008,100.146429 11.008,96.5035714 C11.008,92.3464286 16.75925,85.3071429 23.08025,79.2107143 C22.09125,75.9964286 21.20975,73.7464286 21.20975,73.7464286 C21.20975,70.0285714 23.908,65.6571429 27.46625,62.5178571 C26.7736284,62.6814026 26.1245945,62.99205 25.5635,63.4285714 C21.3440513,66.7198811 17.3404397,70.2771625 13.57725,74.0785714 C4.89125,82.8964286 0.67725,90.2357143 0.67725,96.5035714 C0.67725,108.107143 13.87825,112.403571 22.11275,113.957143 C24.3629038,114.323848 26.6376089,114.520835 28.9175,114.546429 L25.5205,109.510714 L26.961,104.282143 Z" id="Shape" fill="#D6E6FF" fill-rule="nonzero"></path>
                                <ellipse id="Oval" fill="#E4B08E" fill-rule="nonzero" transform="translate(30.342673, 104.699116) rotate(-48.240000) translate(-30.342673, -104.699116) " cx="30.3426731" cy="104.699116" rx="6.86925" ry="2.89285714"></ellipse>
                                <path d="M52.03,118.017857 L32.8305,118.017857 C32.2730635,118.019433 31.740273,117.789009 31.3606502,117.382169 C30.9810274,116.975328 30.78904,116.429011 30.831,115.875 C31.03525,113.003571 31.33625,107.453571 31.33625,100.778571 C31.33625,94.1035714 31.03525,88.5535714 30.831,85.6714286 C30.78904,85.117418 30.9810274,84.5711001 31.3606502,84.1642596 C31.740273,83.7574192 32.2730635,83.5269952 32.8305,83.5285714 L52.03,83.5285714 C53.0819426,83.5260077 53.9559801,84.3362557 54.0295,85.3821429 C54.223,88.1678571 54.55625,93.8571429 54.55625,100.757143 C54.55625,107.657143 54.223,113.346429 54.0295,116.132143 C53.9723162,117.190716 53.0936388,118.01939 52.03,118.017857 Z" id="Shape" fill="#BDE0FF" fill-rule="nonzero"></path>
                                <rect id="Rectangle-path" fill="#D6E6FF" fill-rule="nonzero" x="38.141" y="82.0607143" width="7.9335" height="2.58214286"></rect>
                                <path d="M51.6,118.425 L32.43275,118.425 C31.8753135,118.426576 31.342523,118.196152 30.9629002,117.789312 C30.5832774,117.382471 30.39129,116.836153 30.43325,116.282143 C30.62675,113.410714 30.9385,107.860714 30.9385,101.185714 C30.9385,94.5107143 30.62675,88.9285714 30.43325,86.1 C30.39129,85.5459895 30.5832774,84.9996715 30.9629002,84.5928311 C31.342523,84.1859906 31.8753135,83.9555666 32.43275,83.9571429 L51.6,83.9571429 C52.6519426,83.9545791 53.5259801,84.7648271 53.5995,85.8107143 C53.793,88.5964286 54.12625,94.2857143 54.12625,101.185714 C54.12625,108.085714 53.793,113.775 53.5995,116.560714 C53.5262504,117.608406 52.6537284,118.421924 51.6,118.425 Z" id="Shape" fill="#1D82F5" fill-rule="nonzero"></path>
                                <rect id="Rectangle-path" fill="#BDE0FF" fill-rule="nonzero" x="37.93675" y="82.3821429" width="7.9335" height="2.58214286"></rect>
                                <ellipse id="Oval" fill="#F8C9AE" fill-rule="nonzero" cx="32.60475" cy="109.596429" rx="7.79375" ry="5.625"></ellipse>
                            </g>
                        </g>
                    </g>
                </g>
            </g>
        </g>
    </g>
</svg>