<?xml version="1.0" encoding="UTF-8"?>
<svg width="93px" height="110px" viewBox="0 0 93 110" version="1.1" xmlns="http://www.w3.org/2000/svg" xmlns:xlink="http://www.w3.org/1999/xlink">
    <!-- Generator: Sketch 49 (51002) - http://www.bohemiancoding.com/sketch -->
    <title>svg4</title>
    <desc>Created with Sketch.</desc>
    <defs></defs>
    <g id="Page-1" stroke="none" stroke-width="1" fill="none" fill-rule="evenodd">
        <g id="道具箱" transform="translate(-216.000000, -370.000000)">
            <g id="道具04" transform="translate(200.000000, 350.000000)">
                <g id="svg4" transform="translate(16.000000, 20.000000)">
                    <g id="资源-4">
                        <path d="M92.5905978,56.6271889 C92.5905978,83.2400922 90.341413,109.695853 90.341413,109.695853 L2.39576087,109.695853 C2.39576087,109.695853 4.64494565,82.90553 4.64494565,56.1202765 C4.64494565,29.335023 2.39576087,2.57004608 2.39576087,2.57004608 L90.341413,2.57004608 C90.341413,2.57004608 92.5905978,29.6797235 92.5905978,56.6271889 Z" id="Shape" fill="#66AEE1" fill-rule="nonzero"></path>
                        <path d="M90.1341848,51.0308756 C90.1341848,25.1175115 87.9456522,0 87.9456522,0 L0,0 C0,0 2.18853261,25.2493088 2.18853261,49.8447005 C2.18853261,73.1981567 0,95.9737327 0,95.9737327 C0.591358696,97.535023 2.44125,101.291244 6.02478261,101.291244 C6.02478261,103.658525 7.78875,106.522581 12.0445109,107.141014 L87.9456522,107.141014 C87.9456522,107.141014 90.1341848,78.6271889 90.1341848,51.0308756 Z" id="Shape" fill="#F9FBFF" fill-rule="nonzero"></path>
                        <path d="M7.43494565,99.5677419 C4.59357926,99.3403146 1.94057393,98.0524409 1.77635684e-15,95.9585253 C0.431591318,98.8737351 1.65573789,101.613317 3.53804348,103.876498 C6.57065217,107.353917 12.0647283,107.125806 12.0647283,107.125806 C7.72809783,105.9447 7.24288043,103.242857 7.43494565,99.5677419 Z" id="Shape" fill="#D0DBE2" fill-rule="nonzero"></path>
                        <rect id="Rectangle-path" fill="#BDD5FC" fill-rule="nonzero" x="9.23429348" y="7.08156682" width="69.75" height="3.3202765"></rect>
                        <rect id="Rectangle-path" fill="#B7C1C7" fill-rule="nonzero" x="9.23429348" y="12.2165899" width="69.75" height="1"></rect>
                        <path d="M73.338587,93.5608295 C72.8685326,93.6824885 72.2973913,93.1806452 71.6403261,92.0400922 C71.3876087,91.6075269 71.013587,90.83702 70.5182609,89.7285714 C70.0128261,89.9313364 69.3557609,90.2354839 68.5521196,90.6410138 L66.6061957,91.5940092 C66.5219565,92.3341014 66.3332609,93.4341014 66.0401087,94.8940092 C65.9861809,95.1903137 65.765046,95.4279367 65.4740217,95.5023041 C65.2684026,95.5544579 65.0505843,95.52351 64.8675,95.416129 C64.6693443,95.3144315 64.5280125,95.127925 64.4833696,94.9092166 C64.417663,94.6658986 64.5692935,93.621659 64.9332065,91.7866359 C64.8092994,91.6704583 64.7215349,91.5208225 64.6804891,91.3557604 C64.5743478,90.935023 64.7613587,90.60553 65.2364674,90.3419355 C65.5397283,89.0847926 65.9575543,87.6231951 66.4899457,85.9571429 C67.2177717,83.6912442 67.7282609,82.5152074 68.00625,82.4391705 C68.4105978,82.337788 68.7644022,82.5506912 69.0575543,83.0778802 L70.2048913,85.5617512 L72.7320652,90.6308756 L73.485163,91.7410138 C73.6630409,91.9813233 73.8091467,92.2437195 73.919837,92.521659 C73.9785023,92.7320318 73.9434791,92.9575749 73.8238043,93.1400922 C73.7268074,93.3414223 73.5512387,93.4936598 73.338587,93.5608295 Z M68.3651087,85.3995392 L67.061087,89.5359447 C67.642337,89.2165899 68.5420109,88.7806452 69.75,88.2331797 L68.3651087,85.3995392 Z" id="Shape" fill="#E8351F" fill-rule="nonzero"></path>
                        <path d="M80.9858152,86.0585253 C81.0371198,86.2419998 81.0153738,86.4382863 80.925163,86.6059908 C80.8412034,86.7739713 80.6877508,86.8963506 80.5056522,86.940553 C80.4107664,86.9612801 80.3144633,86.9748358 80.2175543,86.981106 C80.1190236,86.987849 80.0210739,87.0013988 79.9244022,87.021659 L79.1561413,87.2345622 C78.8427717,87.3258065 78.585,87.3917051 78.3828261,87.4322581 L78.8427717,89.2520737 C78.9207213,89.4347245 78.9079809,89.6435832 78.8084123,89.8153419 C78.7088437,89.9871006 78.5341699,90.1015367 78.337337,90.1239631 C78.1542851,90.1873114 77.9533453,90.1726548 77.7813587,90.0834101 C77.6125438,89.9650064 77.500762,89.7812218 77.4730435,89.5764977 L77.2405435,88.6894009 L77.0029891,87.7921659 C76.391413,87.9898618 75.9567391,88.1165899 75.6989674,88.1824885 C74.9003804,88.3903226 74.4404348,88.2534562 74.3191304,87.7769585 C74.2117111,87.4992477 74.3263444,87.1847113 74.5870109,87.0419355 C74.8335475,86.9390971 75.0890372,86.8593413 75.3502174,86.8036866 C75.6079891,86.737788 76.042663,86.6059908 76.6542391,86.4133641 L76.4166848,85.5110599 C76.3228408,85.1801809 76.2635547,84.8404125 76.2397826,84.497235 C76.2373995,84.329086 76.2829952,84.1637581 76.3711957,84.0207373 C76.4651626,83.89417 76.6015944,83.8059502 76.7553261,83.7723502 C76.9386534,83.7190328 77.1357204,83.7428232 77.3011957,83.8382488 C77.4677377,83.9274013 77.5875766,84.0845718 77.6297283,84.2691244 C77.6499457,84.3569892 77.6752174,84.4989247 77.7055435,84.6949309 C77.7358696,84.8875576 77.7661957,85.0345622 77.7914674,85.1359447 L78.0239674,86.0179724 L78.6102717,85.8912442 L79.0752717,85.7543779 C79.2825,85.6834101 79.4391848,85.637788 79.5402717,85.6124424 C80.3641304,85.435023 80.8695652,85.5718894 80.9858152,86.0585253 Z" id="Shape" fill="#E8351F" fill-rule="nonzero"></path>
                        <rect id="Rectangle-path" fill="#A5C9F9" fill-rule="nonzero" x="39.7979348" y="23.3534562" width="38.377663" height="2.75760369"></rect>
                        <rect id="Rectangle-path" fill="#8ACEFC" fill-rule="nonzero" x="39.7979348" y="29.29447" width="30.1592935" height="2.56497696"></rect>
                        <rect id="Rectangle-path" fill="#A5C9F9" fill-rule="nonzero" x="39.7979348" y="36.0414747" width="38.377663" height="2.75760369"></rect>
                        <rect id="Rectangle-path" fill="#8ACEFC" fill-rule="nonzero" x="39.7979348" y="41.9824885" width="30.1592935" height="2.56497696"></rect>
                        <path d="M23.6543478,20.8239631 C16.8851077,20.8239631 11.3975543,26.3275596 11.3975543,33.1165899 L23.6543478,33.1165899 L23.6543478,45.4092166 C30.4235879,45.4092166 35.9111413,39.9056201 35.9111413,33.1165899 C35.9111413,26.3275596 30.4235879,20.8239631 23.6543478,20.8239631 Z" id="Shape" fill="#BDD5FC" fill-rule="nonzero"></path>
                        <path d="M10.0530978,34.383871 C10.0488135,34.803621 10.0673737,35.2232927 10.1086957,35.6410139 C10.1480007,36.0497697 10.2104383,36.4559547 10.2957065,36.8576038 C10.4541848,37.6504324 10.6929778,38.4249571 11.0083696,39.1691246 C11.1094565,39.4124426 11.2257065,39.6760371 11.3470109,39.8889403 C11.4683152,40.1018435 11.5795109,40.3451615 11.7109239,40.568203 C11.842337,40.7912445 11.988913,41.0345625 12.1354891,41.2576039 C12.2820652,41.4806454 12.3629348,41.5820279 12.4791848,41.7645164 C12.8356609,42.2335105 13.2258883,42.6757058 13.6467391,43.0875579 C13.7848913,43.2294934 13.926413,43.3663598 14.0713043,43.498157 C14.6541334,44.027815 15.2853362,44.5013283 15.9565761,44.9124428 C16.1789674,45.0493091 16.4114674,45.1760373 16.6490217,45.2976962 C16.8865761,45.4193552 17.1241304,45.5410142 17.3717935,45.6474658 C17.6194565,45.7539175 17.8772283,45.8553 18.0996196,45.9465442 C18.6684417,46.1558772 19.251099,46.3252572 19.8433696,46.4534567 C20.6551798,46.6188534 21.4814997,46.7020667 22.3098913,46.7018442 L22.3098913,34.383871 L10.0530978,34.383871 Z" id="Shape" fill="#66D5E6" fill-rule="nonzero"></path>
                        <rect id="Rectangle-path" fill="#A5C9F9" fill-rule="nonzero" x="12.0445109" y="57.3013825" width="66.1260326" height="2.56497696"></rect>
                        <rect id="Rectangle-path" fill="#A5C9F9" fill-rule="nonzero" x="12.0445109" y="65.224424" width="66.1260326" height="2.56497696"></rect>
                        <rect id="Rectangle-path" fill="#A5C9F9" fill-rule="nonzero" x="12.0445109" y="73.1474654" width="66.1260326" height="2.56497696"></rect>
                        <rect id="Rectangle-path" fill="#A5C9F9" fill-rule="nonzero" x="12.0445109" y="81.0705069" width="42.8305435" height="2.56497696"></rect>
                        <rect id="Rectangle-path" fill="#A5C9F9" fill-rule="nonzero" x="12.0445109" y="88.9935484" width="42.8305435" height="2.56497696"></rect>
                    </g>
                </g>
            </g>
        </g>
    </g>
</svg>