<?xml version="1.0" encoding="UTF-8"?>
<svg width="31px" height="31px" viewBox="0 0 31 31" version="1.1" xmlns="http://www.w3.org/2000/svg" xmlns:xlink="http://www.w3.org/1999/xlink">
    <!-- Generator: Sketch 49 (51002) - http://www.bohemiancoding.com/sketch -->
    <title>道具箱</title>
    <desc>Created with Sketch.</desc>
    <defs></defs>
    <g id="Page-1" stroke="none" stroke-width="1" fill="none" fill-rule="evenodd">
        <g id="iPhone-8" transform="translate(-91.000000, -536.000000)" fill="#F5A623">
            <g id="道具箱" transform="translate(91.000000, 536.000000)">
                <g id="工具箱">
                    <path d="M21.8826556,5.61936874 L21.8826556,1.8713608 C21.913527,0.977971052 20.8793361,0 20.0612448,0 L10.0280498,0 C9.1893776,0 8.206639,0.946253067 8.206639,1.8713608 L8.206639,5.61936874 L2.7372614,5.61936874 C1.37377594,5.61936874 0,7.11540011 0,8.4316963 L0,13.1153846 L31,13.1153846 L31,8.4316963 C31,7.03610519 29.6210789,5.61936878 28.2627386,5.61936874 L21.8826556,5.61936874 Z M19.5185185,4.76923077 L11.4814815,4.76923077 L11.4814815,3.17948717 C11.4814815,2.69448064 11.8342041,2.38461535 12.3733658,2.38461538 L18.6215953,2.38461538 C19.160757,2.38461538 19.5134797,2.69897145 19.5134797,3.17948717 L19.5134797,4.76923077 L19.5185185,4.76923077 Z M15.350974,19.0416079 C17.1600201,19.0416079 17.2222222,16.8772919 17.2222222,15.5 L12.6296296,15.5 C12.6607307,16.6099056 12.6659142,19.0769231 14.4645933,19.0769231 C14.4645933,19.071878 14.9725775,19.0416079 15.350974,19.0416079 Z M19.1422171,15.5 C19.1422171,15.5 20.5877863,20.96847 15.0370063,20.96847 C9.31131765,20.96847 10.9369399,15.5 10.9369399,15.5 L0,15.5 L0,28.2631928 C0,29.6624627 1.22950549,31 2.73680716,31 L28.2631928,31 C29.6315964,31 31,29.8219383 31,28.2631928 L31,15.5 L19.1422171,15.5 Z" id="Shape" fill-rule="nonzero"></path>
                </g>
            </g>
        </g>
    </g>
</svg>