<?xml version="1.0" encoding="UTF-8"?>
<svg width="92px" height="121px" viewBox="0 0 92 121" version="1.1" xmlns="http://www.w3.org/2000/svg" xmlns:xlink="http://www.w3.org/1999/xlink">
    <!-- Generator: Sketch 49 (51002) - http://www.bohemiancoding.com/sketch -->
    <title>svg6</title>
    <desc>Created with Sketch.</desc>
    <defs></defs>
    <g id="Page-1" stroke="none" stroke-width="1" fill="none" fill-rule="evenodd">
        <g id="道具箱" transform="translate(-217.000000, -595.000000)">
            <g id="道具06" transform="translate(200.000000, 576.000000)">
                <g id="svg6">
                    <g id="资源-7" transform="translate(17.000000, 17.000000)">
                        <g>
                            <path d="M50.7308257,27.2553191 C49.886789,29.7842553 44.7888073,30.2042553 39.3363303,28.1891489 C33.8838532,26.1740426 30.0941284,22.4878723 30.9255046,19.9544681 C32.0354128,13.9225532 36.8675229,17.0055319 42.32,19.0206383 C47.7724771,21.0357447 53.4275229,21.8042553 50.7308257,27.2553191 Z" id="Shape" fill="#FFAC06" fill-rule="nonzero"></path>
                            <ellipse id="Oval" fill="#FFE239" fill-rule="nonzero" transform="translate(41.468225, 21.663592) rotate(-70.810000) translate(-41.468225, -21.663592) " cx="41.4682254" cy="21.6635917" rx="4.58311927" ry="11.0987234"></ellipse>
                            <path d="M67.2444037,4.0212766 C68.700367,5.56723404 67.1726606,9.67787234 63.8302752,13.1987234 C60.4878899,16.7195745 56.6011009,18.323617 55.1493578,16.7731915 C51.3511927,13.7706383 55.2211009,11.1210638 58.5634862,7.60021277 C61.9058716,4.0793617 64.4379817,1.33226763e-15 67.2444037,4.0212766 Z" id="Shape" fill="#FFAC06" fill-rule="nonzero"></path>
                            <ellipse id="Oval" fill="#FFE239" fill-rule="nonzero" transform="translate(60.083638, 9.198505) rotate(-44.880000) translate(-60.083638, -9.198505) " cx="60.0836378" cy="9.19850549" rx="8.53743119" ry="3.94978723"></ellipse>
                            <path d="M33.0862385,39.5604255 C36.0192661,39.4934043 37.6102752,38.5997872 38.9185321,37.5676596 C37.6777982,35.6195745 34.5801835,34.2389362 30.9466055,34.2389362 C28.3005505,34.2389362 25.9372477,34.967234 24.3673394,36.1155319 C27.7561468,37.5319149 28.106422,39.6765957 33.0862385,39.5604255 Z" id="Shape" fill="#FFAC06" fill-rule="nonzero"></path>
                            <path d="M69.806055,37.692766 C68.6201835,35.6776596 65.4677064,34.2389362 61.753945,34.2389362 C58.3018349,34.2389362 55.3350459,35.4855319 53.9845872,37.277234 C56.1430278,38.6157667 58.6118574,39.2889616 61.1124771,39.2208511 C64.2100917,39.2208511 67.1009174,38.5014894 69.806055,37.692766 Z" id="Shape" fill="#FFAC06" fill-rule="nonzero"></path>
                            <path d="M71.5447706,55.0959574 L71.966789,54.5151064 C75.5412844,49.5957447 84.7581651,36.2897872 81.0275229,35.597234 C77.7062385,34.9851064 73.9882569,36.4461702 69.8229358,37.692766 C67.1177982,38.5014894 64.2269725,39.2208511 61.1293578,39.2208511 C58.6287381,39.2889616 56.1599085,38.6157667 54.0014679,37.277234 C51.6466055,35.8787234 49.8234862,34.2389362 46.046422,34.2389362 C42.1385321,34.2389362 40.847156,36.0529787 38.9354128,37.5676596 C37.627156,38.5997872 36.0361468,39.4934043 33.1031193,39.5604255 C28.106422,39.6765957 27.7561468,37.5319149 24.3673394,36.1155319 C22.8438532,35.4765957 20.7042202,34.9851064 17.2521101,34.9180851 C7.92972477,34.7259574 16.9313761,49.5197872 20.0965138,54.3229787 L20.4805505,54.9082979 C8.14073394,62.9508511 0,76.4802128 0,90.983617 C0,105.487021 8.06477064,118.149574 20.3201835,125.642553 L71.4181651,125.642553 C83.6566972,118.149574 91.7383486,105.424468 91.7383486,90.983617 C91.7383486,76.542766 83.7242202,63.1653191 71.5447706,55.0959574 Z" id="Shape" fill="#FFE239" fill-rule="nonzero"></path>
                            <path d="M72.4900917,55.8868085 L19.7377982,55.8868085 C18.9220381,55.8868085 18.2607339,55.1866581 18.2607339,54.3229787 C18.2607339,53.4592994 18.9220381,52.7591489 19.7377982,52.7591489 L72.4900917,52.7591489 C73.3058518,52.7591489 73.967156,53.4592994 73.967156,54.3229787 C73.967156,55.1866581 73.3058518,55.8868085 72.4900917,55.8868085 Z" id="Shape" fill="#FFAC06" fill-rule="nonzero"></path>
                            <path d="M67.0165138,66.6951064 C64.8290122,66.7616578 62.8761153,65.2527592 62.2688073,63.0268085 C61.2644037,59.8187234 62.5051376,55.23 66.2611009,53.4114894 C68.1095413,52.5178723 70.0592661,52.5178723 71.9077064,52.9646809 C72.6926606,50.4714894 74.6719266,47.303617 78.6811009,46.566383 C81.3440367,46.0793617 85.9820183,46.2491489 87.1636697,52.866383 C87.3922177,54.1958596 87.0862795,55.5659972 86.319633,56.646383 C85.3194495,58.1119149 83.6102752,59.0814894 81.5170642,59.376383 C79.8289908,59.6131915 77.9805505,58.7553191 75.8198165,57.7678723 C75.3977982,57.5712766 74.9757798,57.3746809 74.5242202,57.1825532 C74.3722936,60.8017021 73.0049541,65.4797872 68.4429358,66.516383 C67.974984,66.6305089 67.4967002,66.6904354 67.0165138,66.6951064 Z M69.5486239,55.8153191 C68.8439376,55.8065389 68.1457681,55.9589474 67.5018349,56.2621277 C65.4955554,57.3332728 64.4844985,59.756753 65.0878899,62.0482979 C65.5099083,63.3217021 66.4172477,63.8042553 67.8478899,63.4780851 C69.6752294,63.0625532 70.8020183,61.6685106 71.3253211,59.22 C71.5314696,58.1924083 71.6207281,57.1423897 71.5911927,56.0923404 C70.9192863,55.9119641 70.2291242,55.8189382 69.5359633,55.8153191 L69.5486239,55.8153191 Z M74.7478899,53.9074468 C75.5370642,54.2246809 76.2966972,54.5731915 77.0183486,54.9038298 C78.6262385,55.6410638 80.293211,56.4095745 81.1541284,56.2844681 C82.4201835,56.1057447 83.4288073,55.5874468 83.9521101,54.8234043 C84.236067,54.4357295 84.3538967,53.9399649 84.2770642,53.4561702 C83.7031193,50.2480851 82.1669725,49.1131915 79.212844,49.6582979 C76.3515596,50.1765957 75.1952294,52.4553191 74.7352294,53.9074468 L74.7478899,53.9074468 Z" id="Shape" fill="#FFAC06" fill-rule="nonzero"></path>
                            <path d="M75.9633028,73.92 C75.4935412,73.9182457 75.0524117,73.6806814 74.7744297,73.2797484 C74.4964476,72.8788155 74.4145691,72.3620463 74.5537615,71.8870213 C74.83001,70.2496125 74.9220888,68.5833226 74.8280734,66.9229787 C74.6748987,63.1858871 73.8842392,59.5089857 72.4943119,56.07 C72.2592728,55.5517126 72.3117992,54.9386759 72.6310925,54.4736288 C72.9503858,54.0085818 73.4849498,53.7665282 74.0231177,53.843312 C74.5612856,53.9200957 75.0162605,54.303333 75.2078899,54.8412766 C79.0440367,64.3225532 77.579633,72.4231915 77.2926606,73.0442553 C77.0441394,73.5812604 76.5281249,73.9211967 75.9633028,73.92 Z" id="Shape" fill="#FFAC06" fill-rule="nonzero"></path>
                            <path d="M84.9776147,74.7153191 C84.3294083,74.713418 83.7572085,74.2667447 83.5638532,73.6117021 C83.5300917,73.4955319 80.1877064,62.2806383 73.0133945,56.7178723 C72.559706,56.4002976 72.3075638,55.8444445 72.3570774,55.2710064 C72.4065909,54.6975684 72.7497485,54.1993327 73.2503043,53.9741165 C73.7508601,53.7489004 74.3278198,53.8331457 74.7521101,54.1934043 C82.7704587,60.372766 86.2647706,72.1908511 86.4082569,72.6912766 C86.6467869,73.5166697 86.2085705,74.3905907 85.4291743,74.6438298 C85.2834118,74.6938784 85.1308294,74.7180347 84.9776147,74.7153191 Z" id="Shape" fill="#FFAC06" fill-rule="nonzero"></path>
                            <polygon id="Shape" fill="#FFAC06" fill-rule="nonzero" points="21.5693578 109.512766 35.0866055 93.713617 44.573578 97.5382979 52.8493578 85.0187234 48.346422 81.2521277 67.7888073 72.6868085 64.9106422 95.1478723 60.4541284 91.4259574 47.1478899 107.265319 36.1922936 101.680213"></polygon>
                        </g>
                    </g>
                </g>
            </g>
        </g>
    </g>
</svg>