<?xml version="1.0" encoding="UTF-8"?>
<svg width="104px" height="123px" viewBox="0 0 104 123" version="1.1" xmlns="http://www.w3.org/2000/svg" xmlns:xlink="http://www.w3.org/1999/xlink">
    <!-- Generator: Sketch 49 (51002) - http://www.bohemiancoding.com/sketch -->
    <title>svg5</title>
    <desc>Created with Sketch.</desc>
    <defs>
        <polygon id="path-1" points="0 0.812141856 81.918208 0.812141856 81.918208 93.6021441 0 93.6021441"></polygon>
        <polygon id="path-3" points="0.542999114 0.47172229 72.7381333 0.47172229 72.7381333 94.8620956 0.542999114 94.8620956"></polygon>
        <polygon id="path-5" points="0.55136178 0.770944099 72.7467478 0.770944099 72.7467478 95.1603471 0.55136178 95.1603471"></polygon>
        <path d="M0.641527778,8.22428571 C0.0473611111,10.68 0.819777778,14.592 2.34652778,16.908 C4.20480556,21.1577143 10.3100833,29.4711429 11.2573056,29.6974286 C12.2208889,29.9288571 21.2651389,25.3851429 24.9343333,22.3748571 C27.39625,20.9802857 29.8831389,17.8457143 30.4790278,15.3831429 C31.75175,10.1297143 29.0228889,4.95171429 24.397,3.84171429 C21.173,3.06857143 18.1418889,5.49257143 16.7649722,6.82971429 C16.1501389,5.01514286 14.5631111,1.48285714 11.33825,0.708857143 C10.7432222,0.565714286 10.14475,0.497142857 9.55230556,0.497142857 C5.53522222,0.497142857 1.74977778,3.64628571 0.641527778,8.22428571 Z" id="path-7"></path>
    </defs>
    <g id="Page-1" stroke="none" stroke-width="1" fill="none" fill-rule="evenodd">
        <g id="道具箱" transform="translate(-56.000000, -593.000000)">
            <g id="道具05" transform="translate(50.000000, 576.000000)">
                <g id="svg5">
                    <g transform="translate(57.416016, 92.996094) rotate(-26.000000) translate(-57.416016, -92.996094) translate(-6.583984, 23.996094)" id="Page-1">
                        <g>
                            <g id="Group-20">
                                <path d="M57.5837867,78.4159919 L52.2589867,103.650371 C46.0168533,102.37993 41.9899733,96.3042776 43.2631467,90.0805634 L46.28224,76.1159236 L57.5837867,78.4159919 Z" id="Fill-1" fill="#DDBA89"></path>
                                <path d="M66.6650453,78.5563957 L62.388992,99.4493211 L57.1478187,98.3822528 C53.8010453,97.7006565 51.6412587,94.4432901 52.3247787,91.105936 L55.3634987,76.2563273 L66.6650453,78.5563957 Z" id="Fill-3" fill="#C4A476"></path>
                                <g id="Group-7" transform="translate(0.000000, 43.397516)">
                                    <mask id="mask-2" fill="white">
                                        <use xlink:href="#path-1"></use>
                                    </mask>
                                    <g id="Clip-6"></g>
                                    <path d="M28.557568,69.4978025 L37.8699947,63.8186845 C40.4581547,62.2402062 42.3261013,59.7163429 43.0761813,56.7848832 L49.4275413,31.9691627 L81.918208,12.1552186 C79.7823147,9.87982733 77.0141013,8.25029317 73.9293013,7.50913168 L47.9299413,1.25988944 C43.7733547,0.260895652 39.388928,0.948448447 35.740928,3.17363478 L13.9749547,16.447318 C10.7357013,18.4231814 8.40183467,21.5852435 7.473408,25.2570137 L0.609194667,52.4255602 C-0.710912,57.6511317 0.133888,63.1881441 2.95415467,67.785728 L18.752768,93.5476845 L18.9814613,93.6021441 L23.350528,76.5316037 C24.100608,73.5992932 25.969408,71.0754298 28.557568,69.4978025" id="Fill-5" fill="#F1D198" mask="url(#mask-2)"></path>
                                </g>
                                <path d="M36.141312,61.6807186 C33.6009387,61.0697497 31.0452053,62.6286565 30.432512,65.1618801 L28.2317653,74.2642963 L45.270272,63.8744205 L36.141312,61.6807186 Z" id="Fill-8" fill="#B8986F"></path>
                                <path d="M103.866709,96.3861373 L58.932736,85.5861124 C56.9350827,85.105336 55.7062827,83.1022429 56.1875627,81.1102118 L74.1527893,6.79069006 C74.6340693,4.79865901 76.6436693,3.57331739 78.6404693,4.05324286 L123.575296,14.8541186 C125.572949,15.3340441 126.800896,17.3379882 126.319616,19.3291683 L108.355243,93.649541 C107.873109,95.6407211 105.864363,96.8660627 103.866709,96.3861373" id="Fill-10" fill="#FFAC06"></path>
                                <g id="Group-14" transform="translate(54.613333, 2.552795)">
                                    <mask id="mask-4" fill="white">
                                        <use xlink:href="#path-3"></use>
                                    </mask>
                                    <g id="Clip-13"></g>
                                    <path d="M66.20672,10.0066161 L27.5285333,0.709336646 C22.9563733,-0.389216149 18.3406933,2.42651677 17.2381867,6.98495776 L0.781653333,75.0662994 C-0.320853333,79.6255913 2.50197333,84.2291317 7.07413333,85.3276845 L45.75232,94.624113 C50.32448,95.7235168 54.94016,92.9086348 56.0426667,88.3493429 L72.5000533,20.2680012 C73.6017067,15.7087093 70.7780267,11.1060199 66.20672,10.0066161 M65.8338133,11.5493553 C69.5586133,12.4445354 71.8506667,16.1818273 70.95296,19.8961441 L54.4955733,87.9774857 C53.5978667,91.6918025 49.85088,93.977405 46.1252267,93.0822248 L7.44704,83.7849453 C3.72224,82.8897652 1.43018667,79.1533242 2.32874667,75.4390075 L18.78528,7.35681491 C19.6829867,3.64249814 23.4308267,1.35774658 27.1556267,2.25292671 L65.8338133,11.5493553" id="Fill-12" fill="#FFFFFF" mask="url(#mask-4)"></path>
                                </g>
                                <path d="M94.4884053,94.1324447 L49.554432,83.3315689 C47.5567787,82.8516435 46.3279787,80.8476994 46.8092587,78.8556683 L64.7744853,4.53614658 C65.2557653,2.54411553 67.2653653,1.31962484 69.2621653,1.79869938 L114.196992,12.6004261 C116.194645,13.0795006 117.422592,15.0842957 116.941312,17.0754758 L98.9769387,91.3949975 C98.4948053,93.3870286 96.4852053,94.6115193 94.4884053,94.1324447" id="Fill-15" fill="#FFAC06"></path>
                                <g id="Group-19" transform="translate(45.226667, 0.000000)">
                                    <mask id="mask-6" fill="white">
                                        <use xlink:href="#path-5"></use>
                                    </mask>
                                    <g id="Clip-18"></g>
                                    <path d="M66.2150827,10.3057186 L27.536896,1.00843913 C22.964736,-0.0909645963 18.349056,2.72476832 17.2465493,7.28320932 L0.790016,75.3654019 C-0.312490667,79.9238429 2.510336,84.5273832 7.082496,85.626787 L45.7606827,94.9223646 C50.3328427,96.0217683 54.9485227,93.2068863 56.0510293,88.6475944 L72.508416,20.5671037 C73.6100693,16.0069609 70.7872427,11.4042714 66.2150827,10.3057186 M65.842176,11.8476068 C69.566976,12.742787 71.8590293,16.4800789 70.9613227,20.1943957 L54.503936,88.2765882 C53.6062293,91.990054 49.8592427,94.2756565 46.1335893,93.3804764 L7.45540267,84.0831969 C3.73060267,83.1880168 1.43854933,79.4515758 2.33710933,75.737259 L18.7936427,7.65591739 C19.6913493,3.94160062 23.4391893,1.65599814 27.1639893,2.55117826 L65.842176,11.8476068" id="Fill-17" fill="#FFFFFF" mask="url(#mask-6)"></path>
                                </g>
                            </g>
                            <g id="Group-23" transform="translate(67.000000, 31.000000)">
                                <mask id="mask-8" fill="white">
                                    <use xlink:href="#path-7"></use>
                                </mask>
                                <g id="Clip-22"></g>
                                <polygon id="Fill-21" fill="#FFFFFF" mask="url(#mask-8)" points="-17.9318639 34.7810571 34.8576917 47.4470571 47.0294972 -2.81408571 -5.76005833 -15.4809429"></polygon>
                            </g>
                            <g id="Group-28" transform="translate(22.000000, 51.000000)">
                                <path d="M41.4157615,1.4303875 L22.8892231,12.8676792 L5.99491538,23.2970542 L4.39653077,24.2836167 C0.353607692,26.7794917 -0.919853846,32.1112 1.55260769,36.1915542 C4.02506923,40.2727625 9.30591538,41.5582833 13.3488385,39.0624083 L15.3076846,37.8529083 L32.5929154,27.1818042 L50.3689154,16.208325 C54.4109923,13.7133042 55.6844538,8.38159583 53.2119923,4.3003875 C50.7395308,0.220033333 45.4578385,-1.0654875 41.4157615,1.4303875" id="Fill-24" fill="#F1D198"></path>
                                <path d="M49.2277923,13.680675 L42.6337154,17.7516333 L36.4432538,7.53409167 L43.0381769,3.46313333 C45.8330231,1.73771667 49.4841769,2.62605 51.1934077,5.4473625 C52.9026385,8.268675 52.0226385,11.9544042 49.2277923,13.680675" id="Fill-26" fill="#E1BF8D"></path>
                            </g>
                        </g>
                    </g>
                </g>
            </g>
        </g>
    </g>
</svg>