<?xml version="1.0" encoding="UTF-8"?>
<svg width="81px" height="124px" viewBox="0 0 81 124" version="1.1" xmlns="http://www.w3.org/2000/svg" xmlns:xlink="http://www.w3.org/1999/xlink">
    <!-- Generator: Sketch 49 (51002) - http://www.bohemiancoding.com/sketch -->
    <title>svg2</title>
    <desc>Created with Sketch.</desc>
    <defs>
        <polygon id="path-1" points="0 0.217853585 55.242749 0.217853585 55.242749 59.5323654 0 59.5323654"></polygon>
        <polygon id="path-3" points="0 123.807419 80.7879399 123.807419 80.7879399 0 0 0"></polygon>
    </defs>
    <g id="Page-1" stroke="none" stroke-width="1" fill="none" fill-rule="evenodd">
        <g id="道具箱" transform="translate(-225.000000, -153.000000)">
            <g id="道具02" transform="translate(200.000000, 137.000000)">
                <g id="svg2" transform="translate(25.000000, 16.000000)">
                    <g id="Page-1">
                        <path d="M4.2366824,57.3312615 C4.2366824,57.3312615 14.6554378,51.561105 25.7433991,48.9834291 C35.1644292,46.793686 52.5676094,48.8261777 63.687206,55.9014514 C73.2549399,61.9888816 72.3406481,80.0863006 72.3406481,99.1213397 C72.3406481,118.156032 67.2727597,123.807384 67.2727597,123.807384 L5.27716738,123.807384 C5.27716738,123.807384 3.03871674,117.947518 2.95945494,111.902692 C2.70984979,92.8440994 4.2366824,57.3312615 4.2366824,57.3312615" id="Fill-1" fill="#FFFFFF"></path>
                        <g id="Group-5" transform="translate(0.000000, 54.533676)">
                            <mask id="mask-2" fill="white">
                                <use xlink:href="#path-1"></use>
                            </mask>
                            <g id="Clip-4"></g>
                            <path d="M39.8057292,59.5323654 C36.9794202,59.5323654 33.6914459,59.4842201 30.2790167,59.3356279 C11.5502871,58.5178514 5.97554034,55.3863318 3.21076352,52.7497732 C1.14022275,50.7751251 -3.47639485e-05,48.2050693 -3.47639485e-05,45.5130916 C-3.47639485e-05,36.6938514 1.51428283,7.99789609 1.57859614,6.78041006 C1.78092232,2.95996313 5.04977639,0.0279519553 8.88806395,0.227460335 C12.7225275,0.429046927 15.6670339,3.68976201 15.4647077,7.51055531 C15.4504545,7.78210838 14.135682,32.6995274 13.9319652,43.1976168 C15.9114245,43.908019 20.7436133,45.0929464 31.5642399,45.5220972 C40.1234717,45.8618849 47.9102485,45.533181 47.9877721,45.5297173 C51.8232785,45.3721196 55.0688408,48.3273374 55.2360554,52.1495162 C55.4029223,55.9713486 52.4295618,59.2047006 48.5940554,59.3713039 C48.3656562,59.3813486 44.8096519,59.5323654 39.8057292,59.5323654" id="Fill-3" fill="#E8F1FA" mask="url(#mask-2)"></path>
                        </g>
                        <mask id="mask-4" fill="white">
                            <use xlink:href="#path-3"></use>
                        </mask>
                        <g id="Clip-7"></g>
                        <polygon id="Fill-6" fill="#DAB193" mask="url(#mask-4)" points="25.7433991 70.4084469 43.2922403 70.4084469 43.2922403 40.9310838 25.7433991 40.9310838"></polygon>
                        <polygon id="Fill-8" fill="#74C290" mask="url(#mask-4)" points="28.8296382 62.4679095 46.3597069 57.8837196 43.8337584 81.1022 42.7115781 89.8396972"></polygon>
                        <path d="M57.6886172,23.017067 C57.6886172,27.8970559 56.7510335,32.8227654 56.4649262,36.7031341 C56.1492695,40.9842514 52.8320936,44.2847989 48.8411923,44.2847989 L27.6595185,44.2847989 C26.1525013,44.2847989 24.7483854,43.5293687 23.9241322,42.2723966 C21.5476687,38.6466089 16.9803811,30.6770112 16.9803811,22.9716927 C16.9803811,13.1528324 18.8127888,3.78217318 18.8127888,3.78217318 C18.8127888,3.78217318 27.0191665,1.65858659 36.3758833,1.65858659 C45.8361966,1.65858659 56.4482395,3.78217318 56.4482395,3.78217318 C56.4482395,3.78217318 57.6886172,13.328095 57.6886172,23.017067" id="Fill-9" fill="#E4B08E" mask="url(#mask-4)"></path>
                        <path d="M42.1923785,4.73527598 L57.6887562,20.2920804 C57.6887562,20.2920804 60.3377691,5.9229743 55.6787047,3.0200581 C51.019988,0.117141899 26.8666918,-1.99397542 17.5489107,3.0200581 C8.23078197,8.03374525 20.6265631,37.5076447 20.6265631,37.5076447 L42.1923785,4.73527598 Z" id="Fill-10" fill="#3D3126" mask="url(#mask-4)"></path>
                        <path d="M30.2500584,22.6720492 C30.2500584,22.6720492 23.0640026,18.8051888 20.7883545,24.3474346 C18.5127064,29.8900268 24.022097,33.2411441 27.3754275,34.2722838 C30.7291056,35.3034235 30.9686292,33.2411441 30.9686292,33.2411441 L30.2500584,22.6720492 Z" id="Fill-11" fill="#E4B08E" mask="url(#mask-4)"></path>
                        <polygon id="Fill-12" fill="#D6E6FF" mask="url(#mask-4)" points="25.3710773 49.540667 45.2379785 94.5530134 17.8742318 76.7326894 22.0153133 64.5858849 16.1603691 60.4665218"></polygon>
                        <polygon id="Fill-13" fill="#FFFFFF" mask="url(#mask-4)" points="25.3710773 49.540667 46.3598112 94.4435609 19.0749785 76.5293709 22.9692361 63.8370358 17.8495494 60.0259408"></polygon>
                        <polygon id="Fill-14" fill="#D6E6FF" mask="url(#mask-4)" points="43.2923099 48.8996771 42.6012026 90.1289844 54.8721811 71.9920793 49.9388292 61.8649508 54.8721811 55.6698"></polygon>
                        <polygon id="Fill-15" fill="#FFFFFF" mask="url(#mask-4)" points="43.2923099 48.8996771 42.6012026 90.1289844 53.3008506 71.6824257 48.5708678 62.0862804 53.6311082 55.9870737"></polygon>
                        <path d="M66.2762511,110.150101 L65.3550064,110.150101 L65.3550064,65.4394413 L65.9334785,67.5831173 C66.1608348,68.4268715 66.2762511,69.2966034 66.2762511,70.1701453 L66.2762511,110.150101 Z" id="Fill-16" fill="#E8F1FA" mask="url(#mask-4)"></path>
                        <path d="M55.4956725,99.0784939 C55.9180545,101.001879 53.034385,104.180159 49.0553034,106.177321 C45.0755266,108.174483 41.5073549,108.234404 41.084973,106.310673 C40.662591,104.386941 43.5462605,101.208661 47.5256897,99.2118458 C51.5051189,97.2143374 55.0732906,97.154762 55.4956725,99.0784939" id="Fill-17" fill="#E4B08E" mask="url(#mask-4)"></path>
                        <polygon id="Fill-18" fill="#DFAA49" mask="url(#mask-4)" points="80.7879747 73.5591553 49.0286742 73.4424291 48.9226442 74.9366637 80.6367515 76.5361944"></polygon>
                        <polygon id="Fill-19" fill="#F5FBFE" mask="url(#mask-4)" points="76.1926326 117.137016 47.3017056 115.679842 49.4202206 73.9801665 78.3111476 75.4373397"></polygon>
                        <polygon id="Fill-20" fill="#FFE261" mask="url(#mask-4)" points="75.3310082 118.074982 46.4400811 116.617809 48.5585961 74.918133 77.4495232 76.3753061"></polygon>
                        <polygon id="Fill-21" fill="#FFC04F" mask="url(#mask-4)" points="78.6693901 115.259039 75.3310082 118.075017 77.4495232 76.3753408 80.7879052 73.5590168"></polygon>
                        <path d="M64.8043803,81.3538022 L51.5878223,80.6870425 C51.0152601,80.6582939 50.5709768,80.1681821 50.5998309,79.5980592 L50.6523245,78.5658804 C50.6811785,77.9957575 51.1730884,77.5524056 51.7456506,77.5815006 L64.9622086,78.247914 C65.5347708,78.2770089 65.9790541,78.7671207 65.9502,79.3375899 L65.8977064,80.3694223 C65.8688524,80.9398916 65.3765948,81.3828972 64.8043803,81.3538022" id="Fill-22" fill="#FFC04F" mask="url(#mask-4)"></path>
                        <path d="M72.8854687,81.7614089 L69.1973614,81.5754089 C68.6251468,81.5466603 68.1805159,81.0565486 68.20937,80.4860793 L68.2618635,79.4539006 C68.2907176,78.8834313 68.7829751,78.4407721 69.3551897,78.4695207 L73.043297,78.6555207 C73.6158592,78.6842693 74.0601425,79.1747274 74.0312884,79.7451966 L73.9787948,80.7770291 C73.9499408,81.3474983 73.4576833,81.7901575 72.8854687,81.7614089" id="Fill-23" fill="#FFC04F" mask="url(#mask-4)"></path>
                        <path d="M73.1813446,85.2791989 L50.6623017,84.1438022 C50.5013446,84.1354894 50.3761944,83.9976346 50.3841901,83.8372659 L50.3991386,83.5470089 C50.4071343,83.3862939 50.5458425,83.2619475 50.7067996,83.269914 L73.2258425,84.4060034 C73.3867996,84.4139698 73.5119498,84.5518246 73.5036064,84.7121933 L73.4890056,85.0024503 C73.4806622,85.162819 73.3423017,85.2871654 73.1813446,85.2791989" id="Fill-24" fill="#FFC04F" mask="url(#mask-4)"></path>
                        <path d="M73.0514665,87.8353654 L50.5324236,86.6996223 C50.3714665,86.6913095 50.2463163,86.5538011 50.254312,86.393086 L50.2692605,86.1028291 C50.2772562,85.9424603 50.4159644,85.818114 50.5769215,85.8260804 L73.0959644,86.9618235 C73.2569215,86.9697899 73.3820717,87.1076447 73.3737283,87.2680134 L73.3591275,87.5582704 C73.3507841,87.7189855 73.2124236,87.8433318 73.0514665,87.8353654" id="Fill-25" fill="#FFC04F" mask="url(#mask-4)"></path>
                        <path d="M63.7687622,89.8577777 L50.4061957,89.1837441 C50.2452386,89.1754313 50.1200884,89.0379229 50.1284318,88.8772078 L50.1430326,88.5869508 C50.151376,88.4265821 50.2897365,88.3022358 50.4503459,88.3102022 L63.8129124,88.9842358 C63.9742172,88.9922022 64.0990197,89.130057 64.091024,89.2904257 L64.0764232,89.5806827 C64.0680798,89.7410514 63.9297193,89.8657441 63.7687622,89.8577777" id="Fill-26" fill="#FFC04F" mask="url(#mask-4)"></path>
                        <path d="M77.8488219,91.3129419 L78.5253283,77.9992212 C78.533324,77.8388525 78.6716845,77.7141598 78.8329893,77.7224726 L79.1239635,77.7370201 C79.2849206,77.7449866 79.4100708,77.8831877 79.4020751,78.0432101 L78.7255687,91.3572771 C78.717573,91.5176458 78.5792124,91.6419922 78.4182554,91.6340257 L78.1265858,91.6194782 C77.9656288,91.6111654 77.8408262,91.4733106 77.8488219,91.3129419" id="Fill-27" fill="#FFE261" mask="url(#mask-4)"></path>
                        <path d="M59.0219884,107.715025 C59.0219884,111.387226 54.8906408,114.363572 49.7945936,114.363572 C44.6985464,114.363572 40.5671987,111.387226 40.5671987,107.715025 C40.5671987,104.042823 44.6985464,101.066477 49.7945936,101.066477 C54.8906408,101.066477 59.0219884,104.042823 59.0219884,107.715025" id="Fill-28" fill="#F8C9AE" mask="url(#mask-4)"></path>
                    </g>
                </g>
            </g>
        </g>
    </g>
</svg>