<?xml version="1.0" encoding="UTF-8"?>
<svg width="26px" height="26px" viewBox="0 0 26 26" version="1.1" xmlns="http://www.w3.org/2000/svg" xmlns:xlink="http://www.w3.org/1999/xlink">
    <!-- Generator: Sketch 49 (51002) - http://www.bohemiancoding.com/sketch -->
    <title>Fill 4</title>
    <desc>Created with Sketch.</desc>
    <defs>
        <linearGradient x1="-1.11022302e-14%" y1="1.72254642e-14%" x2="100%" y2="100%" id="linearGradient-1">
            <stop stop-color="#FFFFFF" offset="0%"></stop>
            <stop stop-color="#FFFFFF" offset="51.2754318%"></stop>
            <stop stop-color="#F0FCFF" offset="100%"></stop>
        </linearGradient>
    </defs>
    <g id="Page-1" stroke="none" stroke-width="1" fill="none" fill-rule="evenodd">
        <g id="答题通常状态（选中，倒计时）" transform="translate(-30.000000, -505.000000)" fill="url(#linearGradient-1)">
            <g id="svg5" transform="translate(20.000000, 496.000000)">
                <g id="svg1">
                    <path d="M26.000105,22.6429428 C26.000105,24.5333495 24.6008223,26.066316 22.8749222,26.066316 C21.1491777,26.066316 19.7501439,24.5333495 19.7501439,22.6429428 C19.7501439,22.3448982 19.7953372,22.0615614 19.860219,21.7871622 L10.375,21.7871622 L10.375,31.2013759 C10.375,33.0920335 11.7741582,34.625 13.5001827,34.625 L32.2500661,34.625 C33.9759662,34.625 35.375,33.0920335 35.375,31.2013759 L35.375,21.7871622 L25.8881947,21.7871622 C25.9536986,22.0615614 26.000105,22.3448982 26.000105,22.6429428 M32.2501944,12.9535893 L32.25007,12.9535893 C33.9759368,12.9535893 35.375,14.4438682 35.375,16.2823007 L35.375,20.4358108 L10.375,20.4358108 L10.375,16.2823007 C10.375,14.4441122 11.7740321,12.9535893 13.5001788,12.9535893 L18.1874339,12.9535893 L18.1874339,11.2894166 C18.1874339,10.3706121 18.8866389,9.625 19.7498834,9.625 L26.0002099,9.625 C26.8624902,9.625 27.5625661,10.3706121 27.5625661,11.2894166 L27.5625661,12.9535893 L32.2501944,12.9535893 Z M25.9155405,12.3277027 L25.9155405,11.651928 C25.9155405,11.2790671 25.5753237,10.9763514 25.1553033,10.9763514 L20.5944546,10.9763514 C20.1744342,10.9763514 19.8344595,11.2790671 19.8344595,11.651928 L19.8344595,12.3277027 L25.9155405,12.3277027 Z M22.8745964,24.4898649 C21.9410502,24.4898649 21.1858108,23.6822331 21.1858108,22.688019 C21.1864835,22.3733843 21.2670092,22.0637674 21.4200887,21.7871622 L24.3303149,21.7871622 C24.4757589,22.0535668 24.5641892,22.3580339 24.5641892,22.688019 C24.5641892,23.682101 23.8073689,24.4898649 22.8745964,24.4898649 Z" id="Fill-4"></path>
                </g>
            </g>
        </g>
    </g>
</svg>