<?xml version="1.0" encoding="UTF-8"?>
<svg width="21px" height="30px" viewBox="0 0 21 30" version="1.1" xmlns="http://www.w3.org/2000/svg" xmlns:xlink="http://www.w3.org/1999/xlink">
    <!-- Generator: Sketch 47.1 (45422) - http://www.bohemiancoding.com/sketch -->
    <title>Group 6</title>
    <desc>Created with Sketch.</desc>
    <defs></defs>
    <g id="Page-1" stroke="none" stroke-width="1" fill="none" fill-rule="evenodd">
        <g id="iPhone-8" transform="translate(-65.000000, -529.000000)">
            <g id="Group-4" transform="translate(65.000000, 521.000000)">
                <g id="Group-6" transform="translate(0.000000, 8.000000)">
                    <rect id="Rectangle-7" fill="#F5A623" x="0" y="0" width="21" height="30" rx="4"></rect>
                    <g id="收藏" transform="translate(4.000000, 9.000000)" fill-rule="nonzero" fill="#FFFFFF">
                        <path d="M9.34463923,0 C7.93985022,0 6.93358868,1.30376613 6.49985492,1.99333542 C6.06573428,1.30376613 5.05991765,0 3.65520603,0 C1.63941379,0 0,1.8709822 0,4.17048958 C0,5.2456877 0.708091349,6.78722673 1.56770515,7.59392916 C2.75676859,9.16744619 6.0995091,12 6.51223516,12 C6.93221525,12 10.2032665,9.22255596 11.4137825,7.61283703 C12.2885041,6.79190886 13,5.24833759 13,4.17048958 C13,1.8709822 11.3603541,0 9.34463923,0" id="Shape"></path>
                    </g>
                </g>
            </g>
        </g>
    </g>
</svg>