<?xml version="1.0" encoding="UTF-8"?>
<svg width="80px" height="72px" viewBox="0 0 80 72" version="1.1" xmlns="http://www.w3.org/2000/svg" xmlns:xlink="http://www.w3.org/1999/xlink">
    <!-- Generator: Sketch 47.1 (45422) - http://www.bohemiancoding.com/sketch -->
    <title>Combined Shape</title>
    <desc>Created with Sketch.</desc>
    <defs></defs>
    <g id="Page-1" stroke="none" stroke-width="1" fill="none" fill-rule="evenodd">
        <g id="答题页面-copy-2" transform="translate(-221.000000, -501.000000)" stroke="#9B9B9B" fill="#FFFFFF">
            <g id="Group-2-Copy" transform="translate(114.000000, 502.000000)">
                <path d="M131.080227,54.9428984 L128.345701,68.4095943 L128.345701,68.4095943 C128.283277,68.7170127 128.368725,69.0359081 128.576495,69.2709283 C128.942293,69.6847035 129.574263,69.7235963 129.988038,69.3577979 L129.988038,69.3577979 L146.293542,54.9428984 L176,54.9428984 C181.522847,54.9428984 186,50.4657459 186,44.9428984 L186,44.9428984 L186,10 C186,4.4771525 181.522847,8.7960173e-15 176,0 L118,0 L118,0 C112.477153,1.01453063e-15 108,4.4771525 108,10 L108,10 L108,44.9428984 C108,50.4657459 112.477153,54.9428984 118,54.9428984 L131.080227,54.9428984 Z" id="Combined-Shape"></path>
            </g>
        </g>
    </g>
</svg>