<?xml version="1.0" encoding="UTF-8"?>
<svg width="44px" height="36px" viewBox="0 0 44 36" version="1.1" xmlns="http://www.w3.org/2000/svg" xmlns:xlink="http://www.w3.org/1999/xlink">
    <!-- Generator: Sketch 49 (51002) - http://www.bohemiancoding.com/sketch -->
    <title>Combined Shape</title>
    <desc>Created with Sketch.</desc>
    <defs>
        <linearGradient x1="0%" y1="0%" x2="88.6054688%" y2="100%" id="linearGradient-1">
            <stop stop-color="#FFFFFF" offset="0%"></stop>
            <stop stop-color="#A9E5FF" offset="100%"></stop>
        </linearGradient>
    </defs>
    <g id="Page-1" stroke="none" stroke-width="1" fill="none" fill-rule="evenodd">
        <g id="银行" transform="translate(-47.000000, -285.000000)" fill="url(#linearGradient-1)" fill-rule="nonzero">
            <g id="Group-3" transform="translate(10.000000, 258.000000)">
                <g id="Group-2" transform="translate(37.000000, 27.000000)">
                    <path d="M17.9784315,21.3941728 C17.9784315,24.4386168 20.4308187,26.9302547 23.4282749,26.9302547 L41,26.9302547 L41,31.9100934 C41,34.1594131 39.1882732,36 36.9735958,36 L4.02640422,36 C1.8120088,36 0,34.1596995 0,31.9100934 L0,4.08962018 C0,1.84030045 1.81172679,-5.68443234e-16 4.02640422,0 L36.9735958,0 C39.1879912,4.00006114e-10 41,1.84001403 41,4.08962018 L41,9.06974526 L23.4282749,9.06974526 C20.4311007,9.06974526 17.9784315,11.5608103 17.9784315,14.6055408 L17.9784315,21.3941728 Z M41.465146,12 C42.8589718,12 44,13.1065762 44,14.4585949 L44,21.5416831 C44,22.8937018 42.8589718,24 41.465146,24 L23.534854,24 C22.1407416,24 21,22.8934238 21,21.5416831 L21,14.4585949 C21,13.1060202 22.1410282,12 23.534854,12 L41.465146,12 Z M26.1869469,20.1657594 C26.7793626,20.1658332 27.3475362,19.9376353 27.7664373,19.5313825 C28.1853384,19.1251296 28.4206409,18.5741113 28.4205649,17.999583 C28.420717,17.4250066 28.185448,16.8739169 27.7665387,16.4676039 C27.3476293,16.0612909 26.7794122,15.8330549 26.1869469,15.8331287 C24.9532746,15.8331287 23.9531857,16.8030211 23.9531857,17.9994441 C23.9531857,19.195867 24.9532746,20.1657594 26.1869469,20.1657594 Z" id="Combined-Shape"></path>
                </g>
            </g>
        </g>
    </g>
</svg>